G04 DipTrace 4.3.0.4*
G04 racal_dana_OCXO.GTO*
%MOIN*%
G04 #@! TF.FileFunction,Legend,Top*
G04 #@! TF.Part,Single*
%ADD10C,0.009843*%
%ADD13C,0.004724*%
%ADD23C,0.005997*%
%ADD36C,0.006176*%
%FSLAX26Y26*%
G04*
G70*
G90*
G75*
G01*
G04 TopSilk*
%LPD*%
X702268Y893213D2*
D10*
Y794787D1*
X985732D1*
Y893213D1*
X702268D1*
X1144000Y444000D2*
Y844000D1*
X1244000Y494000D2*
Y794000D1*
X1344000Y494000D2*
Y794000D1*
X1644000Y444000D2*
Y844000D1*
X1144000Y444000D2*
X1644000D1*
X1144000Y844000D2*
X1644000D1*
X1444000Y494000D2*
Y794000D1*
X1544000Y494000D2*
Y794000D1*
X1219075Y2429025D2*
D23*
G02X1229217Y2439023I9666J338D01*
G01*
X1219077Y2358967D2*
G03X1229219Y2348970I9666J-337D01*
G01*
X1458783Y2348977D2*
G03X1468925Y2358975I476J9660D01*
G01*
X1458781Y2439030D2*
G02X1468923Y2429033I476J-9660D01*
G01*
X1219077Y2358967D2*
X1219075Y2429025D1*
X1229217Y2439023D2*
X1243967D1*
X1249038Y2433980D2*
X1243967Y2439023D1*
X1229219Y2348970D2*
X1243970Y2348971D1*
X1249041Y2354014D2*
X1243970Y2348971D1*
X1438959Y2433986D2*
X1444030Y2439029D1*
X1438959Y2433986D2*
X1249038Y2433980D1*
X1438962Y2354020D2*
X1444033Y2348977D1*
X1438962Y2354020D2*
X1249041Y2354014D1*
X1458781Y2439030D2*
X1444030Y2439029D1*
X1458783Y2348977D2*
X1444033D1*
X1468925Y2358975D2*
X1468923Y2429033D1*
G36*
X1468924Y2405983D2*
Y2382025D1*
X1503036Y2382026D1*
X1503035Y2405984D1*
X1468924Y2405983D1*
G37*
G36*
X1184964Y2405974D2*
X1184965Y2382016D1*
X1219076Y2382017D1*
Y2405975D1*
X1184964Y2405974D1*
G37*
X891723Y1989995D2*
D13*
Y2241963D1*
X1276762D1*
Y1989995D1*
X1246841D1*
Y2004955D1*
X921644D1*
Y1989995D1*
X891723D1*
X890739Y2193144D2*
G02X890739Y2193144I50000J0D01*
G01*
X927974Y2240388D2*
X927983Y2145900D1*
X953504Y2240388D2*
X953495Y2145900D1*
G36*
X974400Y1988026D2*
X974484Y1989311D1*
X974736Y1990574D1*
X975149Y1991793D1*
X975719Y1992948D1*
X976434Y1994018D1*
X977283Y1994986D1*
X978251Y1995835D1*
X979322Y1996550D1*
X980476Y1997120D1*
X981695Y1997533D1*
X982958Y1997785D1*
X984243Y1997869D1*
X985527Y1997785D1*
X986790Y1997533D1*
X988009Y1997120D1*
X989164Y1996550D1*
X990235Y1995835D1*
X991202Y1994986D1*
X992051Y1994018D1*
X992767Y1992948D1*
X993336Y1991793D1*
X993750Y1990574D1*
X994001Y1989311D1*
X994085Y1988026D1*
D1*
X994001Y1986742D1*
X993750Y1985479D1*
X993336Y1984260D1*
X992767Y1983105D1*
X992051Y1982035D1*
X991202Y1981067D1*
X990235Y1980218D1*
X989164Y1979502D1*
X988009Y1978933D1*
X986790Y1978519D1*
X985527Y1978268D1*
X984243Y1978184D1*
X982958Y1978268D1*
X981695Y1978519D1*
X980476Y1978933D1*
X979322Y1979502D1*
X978251Y1980218D1*
X977283Y1981067D1*
X976434Y1982035D1*
X975719Y1983105D1*
X975149Y1984260D1*
X974736Y1985479D1*
X974484Y1986742D1*
X974400Y1988026D1*
D1*
G37*
X669075Y2429025D2*
D23*
G02X679217Y2439023I9666J338D01*
G01*
X669077Y2358967D2*
G03X679219Y2348970I9666J-337D01*
G01*
X908783Y2348977D2*
G03X918925Y2358975I476J9660D01*
G01*
X908781Y2439030D2*
G02X918923Y2429033I476J-9660D01*
G01*
X669077Y2358967D2*
X669075Y2429025D1*
X679217Y2439023D2*
X693967D1*
X699038Y2433980D2*
X693967Y2439023D1*
X679219Y2348970D2*
X693970Y2348971D1*
X699041Y2354014D2*
X693970Y2348971D1*
X888959Y2433986D2*
X894030Y2439029D1*
X888959Y2433986D2*
X699038Y2433980D1*
X888962Y2354020D2*
X894033Y2348977D1*
X888962Y2354020D2*
X699041Y2354014D1*
X908781Y2439030D2*
X894030Y2439029D1*
X908783Y2348977D2*
X894033D1*
X918925Y2358975D2*
X918923Y2429033D1*
G36*
X918924Y2405983D2*
Y2382025D1*
X953036Y2382026D1*
X953035Y2405984D1*
X918924Y2405983D1*
G37*
G36*
X634964Y2405974D2*
X634965Y2382016D1*
X669076Y2382017D1*
Y2405975D1*
X634964Y2405974D1*
G37*
X719076Y679029D2*
D23*
G02X729218Y689026I9666J338D01*
G01*
X719076Y608971D2*
G03X729218Y598974I9666J-338D01*
G01*
X958782D2*
G03X968924Y608971I476J9660D01*
G01*
X958782Y689026D2*
G02X968924Y679029I476J-9660D01*
G01*
X719076Y608971D2*
Y679029D1*
X729218Y689026D2*
X743969D1*
X749039Y683983D2*
X743969Y689026D1*
X729218Y598974D2*
X743969D1*
X749039Y604017D2*
X743969Y598974D1*
X938961Y683983D2*
X944031Y689026D1*
X938961Y683983D2*
X749039D1*
X938961Y604017D2*
X944031Y598974D1*
X938961Y604017D2*
X749039D1*
X958782Y689026D2*
X944031D1*
X958782Y598974D2*
X944031D1*
X968924Y608971D2*
Y679029D1*
G36*
Y655979D2*
Y632021D1*
X1003035D1*
Y655979D1*
X968924D1*
G37*
G36*
X684965D2*
Y632021D1*
X719076D1*
Y655979D1*
X684965D1*
G37*
G36*
X953518Y1423431D2*
Y1400638D1*
X952136Y1399947D1*
X951446Y1399256D1*
X950755Y1397875D1*
Y1397184D1*
X949374Y1395803D1*
X947762Y1395112D1*
X946150D1*
X944539Y1395803D1*
Y1403400D1*
X943157Y1404091D1*
X941776Y1403400D1*
Y1402019D1*
X941085Y1401328D1*
X939704Y1400638D1*
X939013Y1399947D1*
X938786Y1399109D1*
X938322Y1398566D1*
X936250Y1397875D1*
X935560Y1396493D1*
X933487Y1395112D1*
X932797Y1393731D1*
X932570Y1392893D1*
X932106Y1392349D1*
X930725Y1391659D1*
X930498Y1390821D1*
X930034Y1390277D1*
X927271Y1388896D1*
X924508Y1386133D1*
Y1384751D1*
X923818Y1384061D1*
X922436Y1383370D1*
X921746Y1382679D1*
X921519Y1381841D1*
X921055Y1381298D1*
X918983Y1380607D1*
X918292Y1379226D1*
X916220Y1377844D1*
X915529Y1376463D1*
X915302Y1375625D1*
X914839Y1375082D1*
X913457Y1374391D1*
X913230Y1373553D1*
X912766Y1373010D1*
X910004Y1371628D1*
X907241Y1368865D1*
Y1367484D1*
X906550Y1366793D1*
X905169Y1366103D1*
X904478Y1365412D1*
X904251Y1364574D1*
X903787Y1364030D1*
X901715Y1363340D1*
X901370Y1362649D1*
X900963Y1361927D1*
X900329Y1361265D1*
X898952Y1359886D1*
Y1357814D1*
X896190Y1357123D1*
Y1355051D1*
X898262D1*
Y1356433D1*
X898952Y1357123D1*
X901024Y1357814D1*
X903097Y1359195D1*
X906550Y1361268D1*
Y1362649D1*
X907931Y1363340D1*
X910004Y1364030D1*
Y1365412D1*
X912766Y1366103D1*
X918292Y1370247D1*
Y1371628D1*
X921055Y1372319D1*
X921746Y1373010D1*
X921880Y1373499D1*
X922436Y1374391D1*
X924508Y1375082D1*
X925890Y1375772D1*
Y1376463D1*
X927271Y1377844D1*
X930034Y1378535D1*
Y1379917D1*
X931185Y1380607D1*
X932336D1*
X933487Y1379917D1*
Y1366103D1*
X935560D1*
X936250Y1367484D1*
X939013Y1369556D1*
X944539Y1375082D1*
Y1376463D1*
X945229Y1377154D1*
X947302Y1377844D1*
X947992Y1379226D1*
X950064Y1380607D1*
X950755Y1381298D1*
X951271Y1381742D1*
X951629Y1381701D1*
X952136Y1381298D1*
X953518Y1380607D1*
Y1308774D1*
X952827Y1308083D1*
Y1306702D1*
X951985Y1305981D1*
X951184Y1306070D1*
X950530Y1306869D1*
X950755Y1307393D1*
X946611Y1311537D1*
X944539Y1312918D1*
X943157Y1314300D1*
X941776Y1316372D1*
X938322Y1319825D1*
X936250Y1320516D1*
X935560Y1321207D1*
Y1322588D1*
X933487D1*
Y1309465D1*
X932797Y1308774D1*
X931876Y1308083D1*
X930955D1*
X930034Y1308774D1*
Y1309465D1*
X928653Y1310846D1*
X926580Y1311537D1*
X925199Y1312228D1*
X924380Y1313004D1*
X924508Y1313609D1*
X921746Y1314990D1*
X921055Y1315681D1*
Y1317063D1*
X918292Y1318444D1*
X917601Y1319135D1*
X913457Y1321207D1*
X912638Y1321983D1*
X912766Y1322588D1*
X910004Y1323279D1*
Y1324660D1*
X909313Y1325351D1*
X907241Y1326042D1*
X906422Y1326818D1*
X906550Y1327423D1*
X905859Y1328114D1*
X901715Y1330186D1*
X897571Y1334330D1*
X896190D1*
X895499Y1332949D1*
X897571Y1330877D1*
X898246Y1330152D1*
X898816Y1329289D1*
X898952Y1328805D1*
X900334Y1328114D1*
X901715Y1326732D1*
Y1326042D1*
X903787Y1325351D1*
X904478Y1324660D1*
Y1323279D1*
X905859Y1322588D1*
X907241Y1321207D1*
Y1320516D1*
X908622Y1319825D1*
X910004Y1318444D1*
Y1317753D1*
X912766Y1315681D1*
X913323Y1314789D1*
X913457Y1314300D1*
X914839Y1313609D1*
X916220Y1312228D1*
Y1311537D1*
X917601Y1310846D1*
X918983Y1309465D1*
Y1308774D1*
X921055Y1308083D1*
X921746Y1307393D1*
Y1306011D1*
X923127Y1305321D1*
X924508Y1303939D1*
Y1303249D1*
X925890Y1302558D1*
X927271Y1301176D1*
Y1300486D1*
X930034Y1298414D1*
X930590Y1297522D1*
X930725Y1297032D1*
X932106Y1296341D1*
X933487Y1294960D1*
Y1294269D1*
X934869Y1293579D1*
X936250Y1292197D1*
Y1291507D1*
X938322Y1290816D1*
X939013Y1290125D1*
Y1288744D1*
X940395Y1288053D1*
X941776Y1286672D1*
Y1285981D1*
X943157Y1285290D1*
X943848D1*
X944539Y1285981D1*
Y1293579D1*
X945690Y1294269D1*
X946841D1*
X947992Y1293579D1*
Y1292888D1*
X950755Y1290816D1*
X951446Y1290125D1*
Y1288744D1*
X953518Y1288053D1*
Y1260425D1*
X952367Y1259734D1*
X951216D1*
X950064Y1260425D1*
Y1261806D1*
X947992Y1262497D1*
X947302Y1263188D1*
Y1264569D1*
X946611Y1265260D1*
X943848Y1265951D1*
Y1268023D1*
X941776Y1268713D1*
X941085Y1269404D1*
Y1270785D1*
X938322Y1271476D1*
Y1273548D1*
X936250Y1274239D1*
X935431Y1275015D1*
X935560Y1275620D1*
X934869Y1276311D1*
X933487Y1277002D1*
X932797Y1277692D1*
Y1279074D1*
X930034Y1279765D1*
Y1281837D1*
X929343Y1282527D1*
X927271Y1283218D1*
X926580Y1283909D1*
Y1285290D1*
X923818Y1285981D1*
Y1287362D1*
X923127Y1288053D1*
X921746Y1288744D1*
X921055Y1289434D1*
Y1290816D1*
X918983Y1291507D1*
X918292Y1292197D1*
Y1293579D1*
X916220Y1294269D1*
X915401Y1295046D1*
X915529Y1295651D1*
X914839Y1296341D1*
X913457Y1297032D1*
X912766Y1297723D1*
Y1299104D1*
X912076Y1299795D1*
X910004Y1300486D1*
X909184Y1301262D1*
X909313Y1301867D1*
X908622Y1302558D1*
X907241Y1303249D1*
X906550Y1303939D1*
Y1305321D1*
X903787Y1306011D1*
Y1308083D1*
X901715Y1308774D1*
X901024Y1309465D1*
Y1310846D1*
X898952Y1311537D1*
X898133Y1312313D1*
X898262Y1312918D1*
X897571Y1313609D1*
X896190Y1314300D1*
X895499Y1314990D1*
Y1316372D1*
X894808Y1317063D1*
X892045Y1317753D1*
Y1319135D1*
X891355Y1319825D1*
X889973Y1320516D1*
X889282Y1321207D1*
Y1322588D1*
X887210Y1323279D1*
X886520Y1323970D1*
Y1325351D1*
X883757Y1326042D1*
Y1327423D1*
X883066Y1328114D1*
X881685Y1328805D1*
X880994Y1329495D1*
Y1330877D1*
X878922Y1331567D1*
X878231Y1332258D1*
Y1333639D1*
X877541Y1334330D1*
X875468Y1335021D1*
X874778Y1335712D1*
Y1337093D1*
X872015Y1337784D1*
Y1339856D1*
X869943Y1340546D1*
X869252Y1341237D1*
Y1342619D1*
X867180Y1343309D1*
X866489Y1344000D1*
Y1345381D1*
X867180Y1346072D1*
X869252Y1346763D1*
Y1348144D1*
X869943Y1348835D1*
X872015Y1349526D1*
Y1350907D1*
X872706Y1351598D1*
X874778Y1352288D1*
Y1353670D1*
X875468Y1354361D1*
X877541Y1355051D1*
X880994Y1358505D1*
Y1359886D1*
X881685Y1360577D1*
X883757Y1361268D1*
Y1362649D1*
X884448Y1363340D1*
X886520Y1364030D1*
Y1365412D1*
X887210Y1366103D1*
X889282Y1366793D1*
Y1368175D1*
X889973Y1368865D1*
X892045Y1369556D1*
Y1370937D1*
X892736Y1371628D1*
X894808Y1372319D1*
X898262Y1375772D1*
Y1377154D1*
X898952Y1377844D1*
X901024Y1378535D1*
Y1379917D1*
X901715Y1380607D1*
X903787Y1381298D1*
Y1382679D1*
X904478Y1383370D1*
X906550Y1384061D1*
Y1385442D1*
X907241Y1386133D1*
X909313Y1386824D1*
Y1388205D1*
X910004Y1388896D1*
X912076Y1389586D1*
X915529Y1393040D1*
Y1394421D1*
X916220Y1395112D1*
X918292Y1395803D1*
Y1397184D1*
X918983Y1397875D1*
X921055Y1398566D1*
Y1399947D1*
X921746Y1400638D1*
X923818Y1401328D1*
Y1402710D1*
X924508Y1403400D1*
X926580Y1404091D1*
Y1405473D1*
X927271Y1406163D1*
X929343Y1406854D1*
X932797Y1410308D1*
Y1411689D1*
X933487Y1412380D1*
X935560Y1413070D1*
Y1414452D1*
X936250Y1415142D1*
X938322Y1415833D1*
Y1417215D1*
X939013Y1417905D1*
X941085Y1418596D1*
Y1419977D1*
X941776Y1420668D1*
X943848Y1421359D1*
Y1422740D1*
X944539Y1423431D1*
X946611Y1424122D1*
X950064Y1427575D1*
Y1428956D1*
X930725D1*
Y1426884D1*
X927962Y1426194D1*
Y1424812D1*
X927271Y1424122D1*
X925199Y1423431D1*
Y1422049D1*
X924508Y1421359D1*
X922436Y1420668D1*
Y1418596D1*
X921746Y1417905D1*
X918983Y1417215D1*
Y1415833D1*
X918292Y1415142D1*
X916220Y1414452D1*
Y1413070D1*
X915529Y1412380D1*
X913457Y1411689D1*
Y1409617D1*
X910694Y1408926D1*
Y1407545D1*
X910004Y1406854D1*
X907931Y1406163D1*
Y1404782D1*
X907241Y1404091D1*
X905169Y1403400D1*
Y1401328D1*
X904478Y1400638D1*
X901715Y1399947D1*
Y1398566D1*
X901024Y1397875D1*
X898952Y1397184D1*
Y1395803D1*
X898262Y1395112D1*
X896190Y1394421D1*
Y1392349D1*
X893427Y1391659D1*
Y1390277D1*
X892736Y1389586D1*
X890664Y1388896D1*
Y1387514D1*
X889973Y1386824D1*
X887901Y1386133D1*
Y1384061D1*
X887210Y1383370D1*
X884448Y1382679D1*
Y1381298D1*
X883757Y1380607D1*
X881685Y1379917D1*
Y1378535D1*
X880994Y1377844D1*
X878922Y1377154D1*
Y1375082D1*
X876159Y1374391D1*
Y1373010D1*
X875468Y1372319D1*
X873396Y1371628D1*
Y1370247D1*
X872706Y1369556D1*
X870634Y1368865D1*
Y1366793D1*
X869943Y1366103D1*
X867871Y1365412D1*
X867180Y1364721D1*
X866953Y1363883D1*
X866489Y1363340D1*
X864417Y1362649D1*
Y1361268D1*
X863726Y1360577D1*
X861654Y1359886D1*
Y1357814D1*
X858892Y1357123D1*
Y1355742D1*
X858201Y1355051D1*
X856129Y1354361D1*
Y1352979D1*
X855438Y1352288D1*
X853366Y1351598D1*
Y1349526D1*
X852675Y1348835D1*
X849912Y1348144D1*
Y1346763D1*
X849222Y1346072D1*
X847150Y1345381D1*
Y1344000D1*
X849222Y1343309D1*
X849912Y1342619D1*
Y1340546D1*
X852675Y1339165D1*
X853232Y1338273D1*
X853366Y1337784D1*
X864417Y1326732D1*
X867180Y1325351D1*
Y1323279D1*
X869943Y1321897D1*
X870499Y1321006D1*
X870634Y1320516D1*
X872706Y1319135D1*
X873262Y1318243D1*
X873396Y1317753D1*
X881685Y1309465D1*
X884448Y1308083D1*
Y1306011D1*
X887210Y1304630D1*
X887767Y1303738D1*
X887901Y1303249D1*
X898952Y1292197D1*
X901715Y1290816D1*
Y1288744D1*
X904478Y1287362D1*
X905034Y1286471D1*
X905169Y1285981D1*
X916220Y1274930D1*
X918983Y1273548D1*
Y1271476D1*
X921746Y1270095D1*
X922302Y1269203D1*
X922436Y1268713D1*
X924508Y1267332D1*
X925065Y1266440D1*
X925199Y1265951D1*
X930725Y1260425D1*
X932106Y1259734D1*
X1134482D1*
Y1261806D1*
X1133791Y1262497D1*
Y1288053D1*
X1134482Y1288744D1*
Y1290125D1*
X1135173Y1290816D1*
X1137245Y1291507D1*
Y1292197D1*
X1138626Y1293579D1*
X1140698Y1294269D1*
X1141214Y1294713D1*
X1141572Y1294673D1*
X1142080Y1294269D1*
X1143461Y1292888D1*
Y1285981D1*
X1144152Y1285290D1*
X1144843D1*
X1146224Y1285981D1*
X1148987Y1288744D1*
Y1290125D1*
X1149678Y1290816D1*
X1151059Y1291507D1*
X1151750Y1292197D1*
X1151884Y1292687D1*
X1152440Y1293579D1*
X1154513Y1294269D1*
X1155203Y1295651D1*
X1157275Y1297032D1*
X1157966Y1298414D1*
X1158100Y1298903D1*
X1158657Y1299795D1*
X1160038Y1300486D1*
X1160172Y1300975D1*
X1160729Y1301867D1*
X1163492Y1303249D1*
X1166254Y1306011D1*
Y1307393D1*
X1166945Y1308083D1*
X1168327Y1308774D1*
X1169017Y1309465D1*
X1169152Y1309954D1*
X1169708Y1310846D1*
X1171780Y1311537D1*
X1172471Y1312918D1*
X1174543Y1314300D1*
X1175234Y1315681D1*
X1175368Y1316171D1*
X1175924Y1317063D1*
X1177306Y1317753D1*
X1177440Y1318243D1*
X1177996Y1319135D1*
X1180759Y1320516D1*
X1183522Y1323279D1*
Y1324660D1*
X1184213Y1325351D1*
X1185594Y1326042D1*
X1186285Y1326732D1*
X1186419Y1327222D1*
X1186976Y1328114D1*
X1189048Y1328805D1*
X1189393Y1329495D1*
X1189770Y1330124D1*
X1190436Y1330862D1*
X1191810Y1332258D1*
Y1333639D1*
X1192501Y1334330D1*
X1194573Y1335021D1*
Y1336402D1*
X1193883Y1337093D1*
X1193192D1*
X1192501Y1336402D1*
Y1335021D1*
X1189738Y1334330D1*
Y1332258D1*
X1186976Y1331567D1*
X1184903Y1329495D1*
X1183522Y1328805D1*
X1181450Y1328114D1*
Y1326732D1*
X1180069Y1326042D1*
X1177996Y1325351D1*
Y1323970D1*
X1177306Y1323279D1*
X1175234Y1322588D1*
X1173161Y1320516D1*
X1171780Y1319825D1*
X1169708Y1319135D1*
Y1317753D1*
X1166945Y1317063D1*
X1166254Y1315681D1*
X1164182Y1314300D1*
X1161420Y1312918D1*
X1161192Y1312080D1*
X1160729Y1311537D1*
X1158657Y1310846D1*
X1156585Y1308774D1*
X1155852Y1308024D1*
X1155495Y1308136D1*
X1155203Y1308774D1*
X1154513Y1321897D1*
X1153822Y1322588D1*
X1152440D1*
X1151750Y1321897D1*
X1148987Y1319825D1*
X1146224Y1317063D1*
Y1315681D1*
X1145533Y1314990D1*
X1143461Y1314300D1*
X1142771Y1312918D1*
X1140698Y1311537D1*
X1140008Y1310156D1*
X1137936Y1308774D1*
X1137245Y1307393D1*
Y1306702D1*
X1136324Y1306011D1*
X1135403D1*
X1134482Y1306702D1*
Y1308774D1*
X1133791Y1309465D1*
Y1379917D1*
X1134482Y1380607D1*
X1135173Y1382679D1*
X1135689Y1383123D1*
X1136047Y1383083D1*
X1136554Y1382679D1*
X1137936Y1380607D1*
X1139317Y1379917D1*
X1140698Y1378535D1*
Y1377844D1*
X1142080Y1377154D1*
X1142636Y1376262D1*
X1142771Y1375772D1*
X1144152Y1374391D1*
X1145533Y1373700D1*
X1146090Y1372808D1*
X1146224Y1372319D1*
X1147605Y1371628D1*
X1148987Y1370247D1*
Y1369556D1*
X1152440Y1366103D1*
X1153822D1*
X1154513Y1367484D1*
Y1379917D1*
X1155664Y1380607D1*
X1156815D1*
X1157966Y1379917D1*
Y1378535D1*
X1160729Y1377154D1*
X1161285Y1376262D1*
X1161420Y1375772D1*
X1163492Y1375082D1*
X1164873Y1374391D1*
X1166254Y1373010D1*
Y1372319D1*
X1169017Y1370937D1*
X1169574Y1370046D1*
X1169708Y1369556D1*
X1172471Y1368175D1*
X1173027Y1367283D1*
X1173161Y1366793D1*
X1175234Y1366103D1*
X1176615Y1365412D1*
X1178687Y1363340D1*
X1180759Y1362649D1*
X1181316Y1361757D1*
X1181450Y1361268D1*
X1183522Y1360577D1*
X1184903Y1359195D1*
Y1358505D1*
X1186285Y1357814D1*
X1188357Y1357123D1*
X1189738Y1356433D1*
Y1355051D1*
X1192501Y1354361D1*
Y1352979D1*
X1193192Y1352288D1*
X1194573D1*
Y1354361D1*
X1191810Y1355051D1*
Y1357123D1*
X1189738Y1357814D1*
X1189048Y1358505D1*
Y1359886D1*
X1177306Y1371628D1*
X1175234Y1373010D1*
X1174414Y1373786D1*
X1174543Y1374391D1*
X1162801Y1386133D1*
X1160729Y1387514D1*
X1159910Y1388291D1*
X1160038Y1388896D1*
X1157966Y1390277D1*
X1157147Y1391054D1*
X1157275Y1391659D1*
X1155203Y1393040D1*
X1154384Y1393816D1*
X1154513Y1394421D1*
X1145533Y1403400D1*
X1143461D1*
Y1396493D1*
X1142080Y1395112D1*
X1141347Y1394362D1*
X1140990Y1394474D1*
X1140698Y1395112D1*
X1137936Y1396493D1*
X1137117Y1397270D1*
X1137245Y1397875D1*
X1135173Y1398566D1*
X1134482Y1399256D1*
Y1400638D1*
X1133791Y1401328D1*
Y1426194D1*
X1134482Y1426884D1*
Y1428956D1*
X1135633Y1429647D1*
X1136784D1*
X1137936Y1428956D1*
Y1426884D1*
X1140008Y1426194D1*
X1140698Y1425503D1*
Y1424122D1*
X1143461Y1423431D1*
Y1421359D1*
X1146224Y1420668D1*
Y1419287D1*
X1153131Y1412380D1*
X1155203Y1411689D1*
Y1409617D1*
X1157275Y1408926D1*
X1157966Y1408235D1*
Y1406854D1*
X1160729Y1406163D1*
Y1404091D1*
X1163492Y1403400D1*
Y1402019D1*
X1170399Y1395112D1*
X1172471Y1394421D1*
Y1392349D1*
X1175234Y1391659D1*
Y1389586D1*
X1177996Y1388896D1*
Y1386824D1*
X1180759Y1386133D1*
Y1384751D1*
X1187666Y1377844D1*
X1189738Y1377154D1*
Y1375082D1*
X1191810Y1374391D1*
X1192501Y1373700D1*
Y1372319D1*
X1195264Y1371628D1*
Y1369556D1*
X1198027Y1368865D1*
Y1367484D1*
X1204934Y1360577D1*
X1207006Y1359886D1*
Y1357814D1*
X1209769Y1357123D1*
Y1355051D1*
X1211841Y1354361D1*
X1212532Y1353670D1*
Y1352288D1*
X1215294Y1351598D1*
Y1350216D1*
X1217366Y1348144D1*
X1218042Y1347420D1*
X1218611Y1346557D1*
X1218748Y1346072D1*
X1220820Y1345381D1*
Y1344000D1*
X1219439Y1343309D1*
X1218748Y1342619D1*
Y1341237D1*
X1218057Y1340546D1*
X1215985Y1339856D1*
Y1338474D1*
X1215294Y1337784D1*
X1213222Y1337093D1*
X1209769Y1333639D1*
Y1332258D1*
X1209078Y1331567D1*
X1207006Y1330877D1*
Y1329495D1*
X1206315Y1328805D1*
X1204243Y1328114D1*
Y1326732D1*
X1203552Y1326042D1*
X1201480Y1325351D1*
Y1323970D1*
X1200790Y1323279D1*
X1198718Y1322588D1*
Y1321207D1*
X1198027Y1320516D1*
X1195955Y1319825D1*
X1192501Y1316372D1*
Y1314990D1*
X1191810Y1314300D1*
X1189738Y1313609D1*
Y1312228D1*
X1189048Y1311537D1*
X1186976Y1310846D1*
Y1309465D1*
X1186285Y1308774D1*
X1184213Y1308083D1*
Y1306702D1*
X1183522Y1306011D1*
X1181450Y1305321D1*
Y1303939D1*
X1180759Y1303249D1*
X1178687Y1302558D1*
X1175234Y1299104D1*
Y1297723D1*
X1174543Y1297032D1*
X1172471Y1296341D1*
Y1294960D1*
X1171780Y1294269D1*
X1169708Y1293579D1*
Y1292197D1*
X1169017Y1291507D1*
X1166945Y1290816D1*
Y1289434D1*
X1166254Y1288744D1*
X1164182Y1288053D1*
Y1286672D1*
X1163492Y1285981D1*
X1161420Y1285290D1*
X1157966Y1281837D1*
Y1280455D1*
X1157275Y1279765D1*
X1155203Y1279074D1*
Y1277692D1*
X1154513Y1277002D1*
X1152440Y1276311D1*
Y1274930D1*
X1151750Y1274239D1*
X1149678Y1273548D1*
Y1272167D1*
X1148987Y1271476D1*
X1146915Y1270785D1*
Y1269404D1*
X1146224Y1268713D1*
X1144152Y1268023D1*
X1140698Y1264569D1*
Y1263188D1*
X1140008Y1262497D1*
X1137936Y1261806D1*
Y1260425D1*
X1137245Y1259734D1*
X1136324Y1259044D1*
X1135403D1*
X1134482Y1259734D1*
X932106D1*
X933487Y1257662D1*
X936250Y1256281D1*
Y1254209D1*
X939013Y1253518D1*
X959044D1*
X968713Y1254209D1*
X978383D1*
X988053Y1253518D1*
Y1252136D1*
X989434Y1251446D1*
X991507Y1250064D1*
X992063Y1249173D1*
X992197Y1248683D1*
X993579Y1247992D1*
Y1245920D1*
X985290Y1245229D1*
X984600Y1244539D1*
Y1243848D1*
X985290Y1242467D1*
X986672Y1241776D1*
X987228Y1240884D1*
X987362Y1240395D1*
X988053Y1239704D1*
X990125Y1239013D1*
X990816Y1238322D1*
Y1236941D1*
X992197Y1236250D1*
X993579Y1234869D1*
Y1234178D1*
X994960Y1233487D1*
X996341Y1232106D1*
Y1231415D1*
X999104Y1229343D1*
X999661Y1228452D1*
X999795Y1227962D1*
X1001176Y1227271D1*
X1001733Y1226379D1*
X1001867Y1225890D1*
X1002558Y1225199D1*
X1003939Y1224508D1*
X1005321Y1223127D1*
Y1222436D1*
X1007393Y1221746D1*
X1008083Y1221055D1*
Y1219673D1*
X1009465Y1218983D1*
X1010846Y1217601D1*
Y1216911D1*
X1012228Y1216220D1*
X1013609Y1214839D1*
Y1214148D1*
X1016372Y1212076D1*
X1016928Y1211184D1*
X1017063Y1210694D1*
X1018444Y1210004D1*
X1019825Y1208622D1*
Y1207931D1*
X1021207Y1207241D1*
X1022588Y1205859D1*
Y1205169D1*
X1024660Y1204478D1*
X1025351Y1203787D1*
Y1202406D1*
X1026732Y1201715D1*
X1028114Y1200334D1*
Y1199643D1*
X1030877Y1197571D1*
X1032258Y1196190D1*
X1033639Y1196880D1*
Y1198262D1*
X1028114Y1203787D1*
Y1204478D1*
X1027423Y1206550D1*
X1026732Y1207241D1*
X1025351Y1207931D1*
X1024660Y1208622D1*
Y1210004D1*
X1021897Y1211385D1*
Y1213457D1*
X1020516Y1214148D1*
X1019697Y1214924D1*
X1019825Y1215529D1*
X1018444Y1218292D1*
X1017063Y1218983D1*
X1016372Y1219673D1*
Y1221746D1*
X1014300Y1222436D1*
X1013609Y1223127D1*
Y1224508D1*
X1012918Y1225199D1*
X1011537Y1225890D1*
X1010718Y1226666D1*
X1010846Y1227271D1*
X1010156Y1229343D1*
X1008774Y1230725D1*
X1007393Y1231415D1*
Y1232797D1*
X1008083Y1233487D1*
X1021897Y1234178D1*
Y1236250D1*
X1019825Y1236941D1*
X1019135Y1237632D1*
Y1239013D1*
X1015681Y1242467D1*
X1013609Y1243848D1*
X1012228Y1245229D1*
X1010846Y1247302D1*
X1006702Y1251446D1*
X1005321Y1252136D1*
Y1252827D1*
X1007393Y1253518D1*
X1031798Y1254209D1*
X1056202D1*
X1080607Y1253518D1*
X1081164Y1252626D1*
X1081298Y1252136D1*
X1077154Y1247992D1*
Y1246611D1*
X1076463Y1245920D1*
X1074391Y1245229D1*
X1073700Y1243848D1*
X1071628Y1242467D1*
X1070937Y1241085D1*
X1068865Y1239704D1*
X1068175Y1238322D1*
X1065412Y1236250D1*
Y1234178D1*
X1079917Y1233487D1*
Y1231415D1*
X1078535Y1230725D1*
X1077844Y1230034D1*
X1074391Y1225199D1*
Y1223818D1*
X1073700Y1223127D1*
X1072319Y1222436D1*
X1071628Y1221746D1*
Y1219673D1*
X1069556Y1218983D1*
X1068865Y1217601D1*
X1065412Y1213457D1*
Y1211385D1*
X1063340Y1210694D1*
X1062649Y1208622D1*
X1060577Y1207241D1*
X1059886Y1205169D1*
X1059541Y1204478D1*
X1059134Y1203756D1*
X1058500Y1203094D1*
X1057123Y1201715D1*
Y1199643D1*
X1054361Y1198952D1*
Y1196880D1*
X1052288Y1196190D1*
Y1193427D1*
X1053670Y1194117D1*
Y1195499D1*
X1054361Y1196190D1*
X1056433Y1196880D1*
X1056567Y1197370D1*
X1057123Y1198262D1*
X1059886Y1199643D1*
X1062649Y1202406D1*
Y1203787D1*
X1063340Y1204478D1*
X1064721Y1205169D1*
X1065412Y1205859D1*
X1065546Y1206349D1*
X1066103Y1207241D1*
X1068175Y1207931D1*
X1068865Y1209313D1*
X1070937Y1210694D1*
X1071628Y1212076D1*
X1071762Y1212565D1*
X1072319Y1213457D1*
X1073700Y1214148D1*
X1073835Y1214637D1*
X1074391Y1215529D1*
X1077154Y1216911D1*
X1079917Y1219673D1*
Y1221055D1*
X1080607Y1221746D1*
X1081989Y1222436D1*
X1082679Y1223127D1*
X1082814Y1223617D1*
X1083370Y1224508D1*
X1085442Y1225199D1*
X1086133Y1226580D1*
X1088205Y1227962D1*
X1088896Y1229343D1*
X1089030Y1229833D1*
X1089586Y1230725D1*
X1090968Y1231415D1*
X1091102Y1231905D1*
X1091659Y1232797D1*
X1094421Y1234178D1*
X1097184Y1236941D1*
Y1238322D1*
X1097875Y1239013D1*
X1099256Y1239704D1*
X1099947Y1240395D1*
X1100081Y1240884D1*
X1100638Y1241776D1*
X1102710Y1242467D1*
X1103400Y1243848D1*
Y1244539D1*
X1102710Y1245229D1*
X1094421Y1245920D1*
Y1249374D1*
X1095803Y1250755D1*
X1098566Y1252136D1*
X1099947Y1253518D1*
X1109617Y1254209D1*
X1119287D1*
X1128956Y1253518D1*
Y1251446D1*
X1126884Y1250755D1*
X1123431Y1247302D1*
Y1245920D1*
X1122740Y1245229D1*
X1120668Y1244539D1*
Y1243157D1*
X1119977Y1242467D1*
X1117905Y1241776D1*
Y1240395D1*
X1117215Y1239704D1*
X1115142Y1239013D1*
Y1237632D1*
X1114452Y1236941D1*
X1112380Y1236250D1*
Y1234869D1*
X1111689Y1234178D1*
X1109617Y1233487D1*
X1106163Y1230034D1*
Y1228653D1*
X1105473Y1227962D1*
X1103400Y1227271D1*
Y1225890D1*
X1102710Y1225199D1*
X1100638Y1224508D1*
Y1223127D1*
X1099947Y1222436D1*
X1097875Y1221746D1*
Y1220364D1*
X1097184Y1219673D1*
X1095112Y1218983D1*
Y1217601D1*
X1094421Y1216911D1*
X1092349Y1216220D1*
X1088896Y1212766D1*
Y1211385D1*
X1088205Y1210694D1*
X1086133Y1210004D1*
Y1208622D1*
X1085442Y1207931D1*
X1083370Y1207241D1*
Y1205859D1*
X1082679Y1205169D1*
X1080607Y1204478D1*
Y1203097D1*
X1079917Y1202406D1*
X1077844Y1201715D1*
Y1200334D1*
X1077154Y1199643D1*
X1075082Y1198952D1*
X1071628Y1195499D1*
Y1194117D1*
X1070937Y1193427D1*
X1068865Y1192736D1*
Y1191355D1*
X1068175Y1190664D1*
X1066103Y1189973D1*
Y1188592D1*
X1065412Y1187901D1*
X1063340Y1187210D1*
Y1185829D1*
X1062649Y1185138D1*
X1060577Y1184448D1*
Y1183066D1*
X1059886Y1182375D1*
X1057814Y1181685D1*
X1054361Y1178231D1*
Y1176850D1*
X1053670Y1176159D1*
X1051598Y1175468D1*
Y1174087D1*
X1050907Y1173396D1*
X1048835Y1172706D1*
Y1171324D1*
X1048144Y1170634D1*
X1046072Y1169943D1*
Y1168561D1*
X1045381Y1167871D1*
X1044460Y1167180D1*
X1043540D1*
X1042619Y1167871D1*
X1041928Y1168561D1*
Y1169943D1*
X1039856Y1170634D1*
X1039165Y1171324D1*
Y1172706D1*
X1037093Y1173396D1*
X1036274Y1174173D1*
X1036402Y1174778D1*
X1035712Y1175468D1*
X1034330Y1176159D1*
X1033639Y1176850D1*
Y1178231D1*
X1032949Y1178922D1*
X1030186Y1179613D1*
Y1181685D1*
X1028114Y1182375D1*
X1027423Y1183066D1*
Y1184448D1*
X1024660Y1185138D1*
Y1187210D1*
X1021897Y1187901D1*
Y1189282D1*
X1021207Y1189973D1*
X1019825Y1190664D1*
X1019135Y1191355D1*
Y1192736D1*
X1017063Y1193427D1*
X1016372Y1194117D1*
Y1195499D1*
X1015681Y1196190D1*
X1013609Y1196880D1*
X1012918Y1197571D1*
Y1198952D1*
X1010156Y1199643D1*
Y1201715D1*
X1008083Y1202406D1*
X1007393Y1203097D1*
Y1204478D1*
X1005321Y1205169D1*
X1004630Y1205859D1*
Y1207241D1*
X1002558Y1207931D1*
X1001739Y1208708D1*
X1001867Y1209313D1*
X1001176Y1210004D1*
X999795Y1210694D1*
X999104Y1211385D1*
Y1212766D1*
X998414Y1213457D1*
X995651Y1214148D1*
Y1216220D1*
X993579Y1216911D1*
X992888Y1217601D1*
Y1218983D1*
X990125Y1219673D1*
Y1221746D1*
X987362Y1222436D1*
Y1224508D1*
X985290Y1225199D1*
X984600Y1225890D1*
Y1227271D1*
X981837Y1227962D1*
Y1230034D1*
X981146Y1230725D1*
X979074Y1231415D1*
X978383Y1232106D1*
Y1233487D1*
X976311Y1234178D1*
X975620Y1234869D1*
Y1236250D1*
X973548Y1236941D1*
X972858Y1237632D1*
Y1239013D1*
X970785Y1239704D1*
X970095Y1240395D1*
Y1241776D1*
X968023Y1242467D1*
X967332Y1243157D1*
Y1244539D1*
X965260Y1245229D1*
X964569Y1245920D1*
Y1247302D1*
X963878Y1247992D1*
X961806Y1248683D1*
X961116Y1249374D1*
Y1250755D1*
X959044Y1251446D1*
Y1253518D1*
X939013D1*
Y1252827D1*
X939704Y1251446D1*
X941776Y1250064D1*
X942332Y1249173D1*
X942467Y1248683D1*
X951446Y1239704D1*
X953518Y1239013D1*
Y1236941D1*
X956281Y1236250D1*
Y1234869D1*
X968023Y1223127D1*
X970785Y1221746D1*
Y1219673D1*
X973548Y1218292D1*
X974105Y1217400D1*
X974239Y1216911D1*
X985981Y1205169D1*
X988053Y1204478D1*
Y1202406D1*
X990816Y1201715D1*
Y1200334D1*
X1002558Y1188592D1*
X1005321Y1187210D1*
Y1185138D1*
X1008083Y1183757D1*
X1008640Y1182865D1*
X1008774Y1182375D1*
X1010846Y1180994D1*
X1011403Y1180102D1*
X1011537Y1179613D1*
X1019825Y1171324D1*
X1022588Y1169943D1*
Y1167871D1*
X1025351Y1166489D1*
X1025907Y1165598D1*
X1026042Y1165108D1*
X1028114Y1163726D1*
X1028670Y1162835D1*
X1028805Y1162345D1*
X1037093Y1154057D1*
X1039856Y1152675D1*
Y1150603D1*
X1042619Y1149912D1*
X1043309Y1149222D1*
Y1147840D1*
X1044691D1*
Y1149222D1*
X1045381Y1149912D1*
X1047454Y1150603D1*
Y1152675D1*
X1048144Y1153366D1*
X1050907Y1154057D1*
Y1155438D1*
X1051598Y1156129D1*
X1053670Y1156819D1*
Y1158201D1*
X1054361Y1158892D1*
X1056433Y1159582D1*
Y1161654D1*
X1059195Y1162345D1*
Y1163726D1*
X1059886Y1164417D1*
X1061958Y1165108D1*
Y1167180D1*
X1064721Y1167871D1*
Y1169943D1*
X1065412Y1170634D1*
X1068175Y1171324D1*
Y1172706D1*
X1068865Y1173396D1*
X1070247Y1174087D1*
X1070937Y1174778D1*
X1071072Y1175267D1*
X1071628Y1176159D1*
X1073700Y1176850D1*
Y1178922D1*
X1076463Y1179613D1*
Y1180994D1*
X1077154Y1181685D1*
X1079226Y1182375D1*
Y1183757D1*
X1079917Y1184448D1*
X1081989Y1185138D1*
Y1187210D1*
X1082679Y1187901D1*
X1085442Y1188592D1*
Y1189973D1*
X1086133Y1190664D1*
X1088205Y1191355D1*
Y1192736D1*
X1088896Y1193427D1*
X1090968Y1194117D1*
Y1196190D1*
X1093731Y1196880D1*
Y1198262D1*
X1094421Y1198952D1*
X1096493Y1199643D1*
Y1201024D1*
X1097184Y1201715D1*
X1099256Y1202406D1*
Y1204478D1*
X1099947Y1205169D1*
X1102710Y1205859D1*
Y1207241D1*
X1103400Y1207931D1*
X1105473Y1208622D1*
Y1210004D1*
X1106163Y1210694D1*
X1108235Y1211385D1*
Y1213457D1*
X1110998Y1214148D1*
Y1215529D1*
X1111689Y1216220D1*
X1113761Y1216911D1*
Y1218292D1*
X1114452Y1218983D1*
X1116524Y1219673D1*
Y1221746D1*
X1117215Y1222436D1*
X1119977Y1223127D1*
Y1224508D1*
X1120668Y1225199D1*
X1122740Y1225890D1*
Y1227271D1*
X1123431Y1227962D1*
X1125503Y1228653D1*
Y1230725D1*
X1128266Y1231415D1*
Y1233487D1*
X1131029Y1234178D1*
Y1235560D1*
X1131719Y1236250D1*
X1133791Y1236941D1*
Y1239013D1*
X1134482Y1239704D1*
X1137245Y1240395D1*
Y1241776D1*
X1137936Y1242467D1*
X1140008Y1243157D1*
Y1244539D1*
X1140698Y1245229D1*
X1142771Y1245920D1*
Y1247992D1*
X1145533Y1248683D1*
Y1250064D1*
X1146224Y1250755D1*
X1148296Y1251446D1*
Y1252827D1*
X1148987Y1253518D1*
X1151059Y1254209D1*
Y1256281D1*
X1151750Y1256971D1*
X1154513Y1257662D1*
Y1259044D1*
X1155203Y1259734D1*
X1157275Y1260425D1*
Y1261806D1*
X1157966Y1262497D1*
X1160038Y1263188D1*
Y1265260D1*
X1162801Y1265951D1*
Y1267332D1*
X1163492Y1268023D1*
X1165564Y1268713D1*
Y1270095D1*
X1166254Y1270785D1*
X1168327Y1271476D1*
Y1273548D1*
X1169017Y1274239D1*
X1171780Y1274930D1*
Y1276311D1*
X1172471Y1277002D1*
X1174543Y1277692D1*
Y1279074D1*
X1175234Y1279765D1*
X1177306Y1280455D1*
Y1282527D1*
X1180069Y1283218D1*
Y1284600D1*
X1180759Y1285290D1*
X1182831Y1285981D1*
Y1287362D1*
X1183522Y1288053D1*
X1185594Y1288744D1*
Y1290816D1*
X1186285Y1291507D1*
X1189048Y1292197D1*
Y1293579D1*
X1189738Y1294269D1*
X1191810Y1294960D1*
Y1296341D1*
X1192501Y1297032D1*
X1194573Y1297723D1*
Y1299795D1*
X1197336Y1300486D1*
Y1301867D1*
X1198027Y1302558D1*
X1200099Y1303249D1*
Y1305321D1*
X1202862Y1306011D1*
Y1308083D1*
X1203552Y1308774D1*
X1206315Y1309465D1*
Y1310846D1*
X1207006Y1311537D1*
X1208387Y1312228D1*
X1209078Y1312918D1*
X1209212Y1313408D1*
X1209769Y1314300D1*
X1211841Y1314990D1*
Y1317063D1*
X1214604Y1317753D1*
Y1319135D1*
X1215294Y1319825D1*
X1217366Y1320516D1*
Y1321897D1*
X1218057Y1322588D1*
X1220129Y1323279D1*
Y1325351D1*
X1220820Y1326042D1*
X1223583Y1326732D1*
Y1328114D1*
X1224274Y1328805D1*
X1226346Y1329495D1*
Y1330877D1*
X1227036Y1331567D1*
X1229108Y1332258D1*
Y1334330D1*
X1231871Y1335021D1*
Y1336402D1*
X1232562Y1337093D1*
X1234634Y1337784D1*
Y1339165D1*
X1235325Y1339856D1*
X1237397Y1340546D1*
Y1342619D1*
X1238088Y1343309D1*
X1240160Y1344000D1*
Y1345381D1*
X1238088Y1346072D1*
X1237397Y1346763D1*
Y1348144D1*
X1235325Y1348835D1*
X1234634Y1349526D1*
Y1350907D1*
X1233943Y1351598D1*
X1232562Y1352288D1*
X1231743Y1353065D1*
X1231871Y1353670D1*
X1225655Y1359886D1*
X1224274Y1360577D1*
X1223583Y1361268D1*
Y1362649D1*
X1220820Y1363340D1*
X1220129Y1364030D1*
Y1365412D1*
X1218057Y1366103D1*
X1217366Y1366793D1*
Y1368865D1*
X1214604Y1369556D1*
Y1371628D1*
X1211841Y1372319D1*
Y1373700D1*
X1208387Y1377154D1*
X1207006Y1377844D1*
X1206315Y1378535D1*
Y1379917D1*
X1203552Y1380607D1*
X1202862Y1381298D1*
Y1382679D1*
X1200790Y1383370D1*
X1200099Y1384061D1*
Y1385442D1*
X1199408Y1386133D1*
X1198027Y1386824D1*
X1197208Y1387600D1*
X1197336Y1388205D1*
X1193883Y1391659D1*
X1191810Y1392349D1*
Y1394421D1*
X1189738Y1395112D1*
X1189048Y1395803D1*
Y1397184D1*
X1186285Y1397875D1*
X1185594Y1398566D1*
Y1399947D1*
X1183522Y1400638D1*
X1182831Y1401328D1*
Y1402710D1*
X1182141Y1403400D1*
X1180759Y1404091D1*
X1179940Y1404868D1*
X1180069Y1405473D1*
X1173852Y1411689D1*
X1171780Y1412380D1*
Y1414452D1*
X1169017Y1415142D1*
X1168327Y1415833D1*
Y1417215D1*
X1166254Y1417905D1*
X1165564Y1418596D1*
Y1419977D1*
X1164873Y1420668D1*
X1163492Y1421359D1*
X1162801Y1422049D1*
Y1423431D1*
X1160038Y1424122D1*
Y1425503D1*
X1156585Y1428956D1*
X1155203Y1429647D1*
X1154513Y1430338D1*
Y1431719D1*
X1151750Y1432410D1*
X1151059Y1433101D1*
Y1434482D1*
X1148987Y1435173D1*
X1148296Y1435864D1*
Y1437245D1*
X1147605Y1437936D1*
X1146224Y1438626D1*
X1145405Y1439403D1*
X1145533Y1440008D1*
X1142080Y1443461D1*
X1140008Y1444152D1*
Y1446224D1*
X1137936Y1446915D1*
X1137245Y1447605D1*
Y1448987D1*
X1134482Y1449678D1*
X1133791Y1450368D1*
Y1451750D1*
X1131719Y1452440D1*
X1131029Y1453131D1*
Y1454513D1*
X1119287Y1466254D1*
X1117215Y1466945D1*
X1116524Y1467636D1*
Y1469017D1*
X1114452Y1469708D1*
X1113761Y1470399D1*
Y1472471D1*
X1111689Y1473161D1*
X1110998Y1473852D1*
Y1475234D1*
X1108235Y1475924D1*
Y1477306D1*
X1107545Y1477996D1*
X1105473Y1478687D1*
Y1480759D1*
X1103400Y1481450D1*
X1102710Y1482141D1*
Y1483522D1*
X1099947Y1484213D1*
X1099256Y1484903D1*
Y1486285D1*
X1097184Y1486976D1*
X1096493Y1487666D1*
Y1489048D1*
X1095803Y1489738D1*
X1094421Y1490429D1*
X1093602Y1491206D1*
X1093731Y1491810D1*
X1090277Y1495264D1*
X1088205Y1495955D1*
Y1498027D1*
X1086133Y1498718D1*
X1085314Y1499494D1*
X1085442Y1500099D1*
X1084751Y1500790D1*
X1082679Y1501480D1*
X1081989Y1502171D1*
Y1503552D1*
X1079917Y1504243D1*
X1079226Y1504934D1*
Y1507006D1*
X1076463Y1507697D1*
Y1509769D1*
X1073700Y1510459D1*
Y1511841D1*
X1070247Y1515294D1*
X1068865Y1515985D1*
X1068175Y1516676D1*
Y1518057D1*
X1065412Y1518748D1*
X1064721Y1519439D1*
Y1520820D1*
X1062649Y1521511D1*
X1061958Y1522201D1*
Y1523583D1*
X1061268Y1524274D1*
X1059886Y1524964D1*
X1059067Y1525741D1*
X1059195Y1526346D1*
X1052979Y1532562D1*
X1051598Y1533253D1*
X1050907Y1533943D1*
Y1535325D1*
X1048144Y1536015D1*
X1047454Y1536706D1*
Y1538088D1*
X1045381Y1538778D1*
X1044691Y1539469D1*
Y1540850D1*
X1043309D1*
Y1539469D1*
X1042619Y1538778D1*
X1039856Y1538088D1*
Y1536706D1*
X1039165Y1536015D1*
X1037093Y1535325D1*
Y1533943D1*
X1036402Y1533253D1*
X1034330Y1532562D1*
Y1530490D1*
X1031567Y1529799D1*
Y1528418D1*
X1030877Y1527727D1*
X1028805Y1527036D1*
Y1525655D1*
X1028114Y1524964D1*
X1026042Y1524274D1*
Y1522201D1*
X1025351Y1521511D1*
X1022588Y1520820D1*
X1042619D1*
X1043540Y1521511D1*
X1044460D1*
X1045381Y1520820D1*
Y1519439D1*
X1048144Y1517366D1*
X1049526Y1515985D1*
X1051598Y1515294D1*
Y1513222D1*
X1053670Y1512532D1*
X1054361Y1511841D1*
Y1510459D1*
X1057123Y1509769D1*
Y1507697D1*
X1059886Y1507006D1*
Y1505625D1*
X1066793Y1498718D1*
X1068865Y1498027D1*
Y1495955D1*
X1071628Y1495264D1*
Y1493192D1*
X1073700Y1492501D1*
X1074391Y1491810D1*
Y1490429D1*
X1077154Y1489738D1*
Y1488357D1*
X1084061Y1481450D1*
X1086133Y1480759D1*
Y1478687D1*
X1088896Y1477996D1*
Y1475924D1*
X1090968Y1475234D1*
X1091659Y1474543D1*
Y1473161D1*
X1094421Y1472471D1*
Y1471089D1*
X1101328Y1464182D1*
X1103400Y1463492D1*
Y1461420D1*
X1106163Y1460729D1*
Y1458657D1*
X1108926Y1457966D1*
Y1455894D1*
X1111689Y1455203D1*
Y1453822D1*
X1118596Y1446915D1*
X1120668Y1446224D1*
Y1444152D1*
X1123431Y1443461D1*
Y1441389D1*
X1125503Y1440698D1*
X1126194Y1440008D1*
Y1438626D1*
X1128956Y1437936D1*
Y1435864D1*
X1126194Y1435173D1*
X1117445Y1434482D1*
X1108696D1*
X1099947Y1435173D1*
X1097875Y1435864D1*
X1097184Y1436554D1*
Y1437936D1*
X1094421Y1439317D1*
Y1442771D1*
X1095112Y1443461D1*
X1102710Y1444152D1*
Y1446224D1*
X1099947Y1448987D1*
X1097184Y1451059D1*
X1096365Y1451835D1*
X1096493Y1452440D1*
X1093731Y1455203D1*
X1091659Y1455894D1*
X1090968Y1456585D1*
Y1457966D1*
X1088896Y1458657D1*
X1088205Y1459347D1*
Y1460729D1*
X1086133Y1461420D1*
X1085442Y1462110D1*
Y1463492D1*
X1084751Y1464182D1*
X1082679Y1465564D1*
X1079917Y1468327D1*
X1079226Y1469708D1*
X1076463Y1472471D1*
X1074391Y1473161D1*
X1073700Y1473852D1*
Y1475234D1*
X1071628Y1475924D1*
X1070937Y1476615D1*
Y1477996D1*
X1068865Y1478687D1*
X1068175Y1479378D1*
Y1480759D1*
X1065412Y1483522D1*
X1062649Y1485594D1*
X1061830Y1486371D1*
X1061958Y1486976D1*
X1059195Y1489738D1*
X1056433Y1490429D1*
Y1492501D1*
X1053670Y1493192D1*
Y1494573D1*
X1052979Y1495264D1*
X1052288D1*
X1051598Y1494573D1*
X1052288Y1493192D1*
X1054361Y1492501D1*
Y1490429D1*
X1055742Y1489738D1*
X1056298Y1488847D1*
X1056433Y1488357D1*
X1057814Y1485594D1*
X1059195Y1484903D1*
X1060577Y1483522D1*
Y1482141D1*
X1062649Y1480069D1*
X1063205Y1479177D1*
X1063340Y1478687D1*
X1064030Y1477996D1*
X1065412Y1475924D1*
X1066103Y1474543D1*
X1066793Y1473852D1*
X1068175Y1473161D1*
X1068865Y1472471D1*
Y1470399D1*
X1071628Y1469017D1*
Y1466945D1*
X1073010Y1466254D1*
X1074391Y1464873D1*
Y1464182D1*
X1075082Y1462110D1*
X1077844Y1460729D1*
Y1458657D1*
X1079917Y1457966D1*
Y1455894D1*
X1066793Y1455203D1*
X1065412Y1453822D1*
X1066103Y1452440D1*
X1068175Y1451059D1*
X1068731Y1450167D1*
X1068865Y1449678D1*
X1070247Y1448987D1*
X1071628Y1447605D1*
Y1446915D1*
X1073010Y1446224D1*
X1073566Y1445332D1*
X1073700Y1444843D1*
X1075082Y1443461D1*
X1076463Y1442771D1*
X1077019Y1441879D1*
X1077154Y1441389D1*
X1078535Y1440698D1*
X1079917Y1439317D1*
Y1438626D1*
X1081298Y1437936D1*
X1082679Y1436554D1*
X1081989Y1435864D1*
X1079917Y1435173D1*
X1055972Y1434482D1*
X1032028D1*
X1008083Y1435173D1*
X1005321Y1435864D1*
Y1437245D1*
X1008083Y1438626D1*
X1013609Y1444152D1*
Y1445533D1*
X1014300Y1446224D1*
X1016372Y1446915D1*
X1017063Y1448296D1*
X1019135Y1449678D1*
X1019480Y1450368D1*
X1019857Y1450998D1*
X1020523Y1451735D1*
X1021897Y1453131D1*
Y1454513D1*
X1020516Y1455203D1*
X1008083Y1455894D1*
X1007264Y1456670D1*
X1007478Y1457132D1*
X1008083Y1457966D1*
X1009465Y1458657D1*
X1010156Y1459347D1*
X1012228Y1462801D1*
X1013609Y1464873D1*
X1016372Y1467636D1*
Y1469017D1*
X1017063Y1469708D1*
X1018444Y1470399D1*
X1019135Y1471089D1*
X1021897Y1475924D1*
Y1477306D1*
X1022588Y1477996D1*
X1024660Y1478687D1*
Y1480759D1*
X1025351Y1481450D1*
X1027423Y1482141D1*
X1028114Y1484213D1*
X1030877Y1487666D1*
Y1489738D1*
X1033639Y1490429D1*
X1035021Y1493192D1*
X1035712Y1493883D1*
Y1495264D1*
X1034330D1*
Y1493883D1*
X1033639Y1493192D1*
X1031567Y1492501D1*
X1030877Y1491810D1*
X1028114Y1489738D1*
Y1488357D1*
X1027423Y1487666D1*
X1026042Y1486976D1*
X1025351Y1486285D1*
X1025124Y1485447D1*
X1024660Y1484903D1*
X1022588Y1484213D1*
X1021897Y1482831D1*
X1019825Y1481450D1*
X1019135Y1480069D1*
X1018908Y1479231D1*
X1018444Y1478687D1*
X1017063Y1477996D1*
X1016836Y1477158D1*
X1016372Y1476615D1*
X1013609Y1475234D1*
X1010846Y1472471D1*
Y1471089D1*
X1010156Y1470399D1*
X1008774Y1469708D1*
X1008083Y1469017D1*
X1007856Y1468179D1*
X1007393Y1467636D1*
X1005321Y1466945D1*
X1004630Y1465564D1*
X1002558Y1464182D1*
X1001867Y1462801D1*
X1001640Y1461963D1*
X1001176Y1461420D1*
X999795Y1460729D1*
X999568Y1459891D1*
X999104Y1459347D1*
X996341Y1457966D1*
X993579Y1455203D1*
Y1453822D1*
X992888Y1453131D1*
X991507Y1452440D1*
X990816Y1451750D1*
X990589Y1450912D1*
X990125Y1450368D1*
X988053Y1449678D1*
X987362Y1448296D1*
X985290Y1446915D1*
X984600Y1445533D1*
Y1444843D1*
X985290Y1444152D1*
X992888Y1443461D1*
X994269Y1442080D1*
X993579Y1441389D1*
Y1440008D1*
X992197Y1438626D1*
X990816Y1437936D1*
Y1436554D1*
X990125Y1435864D1*
X987362Y1435173D1*
X978613Y1434482D1*
X969865D1*
X961116Y1435173D1*
X958353Y1435864D1*
Y1437245D1*
X959044Y1437936D1*
X961116Y1438626D1*
Y1440008D1*
X961806Y1440698D1*
X963878Y1441389D1*
X967332Y1444843D1*
Y1446224D1*
X968023Y1446915D1*
X970095Y1447605D1*
Y1448987D1*
X970785Y1449678D1*
X972858Y1450368D1*
Y1451750D1*
X973548Y1452440D1*
X975620Y1453131D1*
Y1454513D1*
X976311Y1455203D1*
X978383Y1455894D1*
Y1457275D1*
X979074Y1457966D1*
X981146Y1458657D1*
X984600Y1462110D1*
Y1463492D1*
X985290Y1464182D1*
X987362Y1464873D1*
Y1466254D1*
X988053Y1466945D1*
X990125Y1467636D1*
Y1469017D1*
X990816Y1469708D1*
X992888Y1470399D1*
Y1471780D1*
X993579Y1472471D1*
X995651Y1473161D1*
Y1474543D1*
X996341Y1475234D1*
X998414Y1475924D1*
X1001867Y1479378D1*
Y1480759D1*
X1002558Y1481450D1*
X1004630Y1482141D1*
Y1483522D1*
X1005321Y1484213D1*
X1007393Y1484903D1*
Y1486285D1*
X1008083Y1486976D1*
X1010156Y1487666D1*
Y1489048D1*
X1010846Y1489738D1*
X1012918Y1490429D1*
Y1491810D1*
X1013609Y1492501D1*
X1015681Y1493192D1*
X1019135Y1496645D1*
Y1498027D1*
X1019825Y1498718D1*
X1021897Y1499408D1*
Y1500790D1*
X1022588Y1501480D1*
X1024660Y1502171D1*
Y1503552D1*
X1025351Y1504243D1*
X1027423Y1504934D1*
Y1506315D1*
X1028114Y1507006D1*
X1030186Y1507697D1*
Y1509078D1*
X1030877Y1509769D1*
X1032949Y1510459D1*
X1036402Y1513913D1*
Y1515294D1*
X1037093Y1515985D1*
X1039165Y1516676D1*
Y1518057D1*
X1039856Y1518748D1*
X1041928Y1519439D1*
X1042619Y1520129D1*
Y1520820D1*
X1022588D1*
Y1519439D1*
X1021897Y1518748D1*
X1019825Y1518057D1*
Y1516676D1*
X1019135Y1515985D1*
X1017063Y1515294D1*
Y1513222D1*
X1014300Y1512532D1*
Y1511150D1*
X1013609Y1510459D1*
X1011537Y1509769D1*
Y1508387D1*
X1010846Y1507697D1*
X1008774Y1507006D1*
Y1504934D1*
X1008083Y1504243D1*
X1005321Y1503552D1*
Y1502171D1*
X1004630Y1501480D1*
X1002558Y1500790D1*
Y1499408D1*
X1001867Y1498718D1*
X999795Y1498027D1*
Y1495955D1*
X997032Y1495264D1*
Y1493883D1*
X996341Y1493192D1*
X994269Y1492501D1*
Y1491120D1*
X993579Y1490429D1*
X991507Y1489738D1*
Y1487666D1*
X990816Y1486976D1*
X988053Y1486285D1*
Y1484903D1*
X987362Y1484213D1*
X985290Y1483522D1*
Y1482141D1*
X984600Y1481450D1*
X982527Y1480759D1*
Y1478687D1*
X979765Y1477996D1*
Y1476615D1*
X979074Y1475924D1*
X977002Y1475234D1*
Y1473852D1*
X976311Y1473161D1*
X974239Y1472471D1*
Y1470399D1*
X973548Y1469708D1*
X970785Y1469017D1*
Y1467636D1*
X970095Y1466945D1*
X968023Y1466254D1*
Y1464873D1*
X967332Y1464182D1*
X965260Y1463492D1*
Y1461420D1*
X962497Y1460729D1*
Y1459347D1*
X961806Y1458657D1*
X959734Y1457966D1*
Y1456585D1*
X959044Y1455894D1*
X956971Y1455203D1*
Y1453131D1*
X956281Y1452440D1*
X953518Y1451750D1*
Y1450368D1*
X952827Y1449678D1*
X950755Y1448987D1*
Y1447605D1*
X950064Y1446915D1*
X947992Y1446224D1*
Y1444152D1*
X945229Y1443461D1*
Y1442080D1*
X944539Y1441389D1*
X942467Y1440698D1*
Y1439317D1*
X941776Y1438626D1*
X939704Y1437936D1*
Y1435864D1*
X939013Y1435173D1*
X936941Y1434482D1*
X936250Y1433791D1*
X936023Y1432953D1*
X935560Y1432410D1*
X933487Y1431719D1*
Y1430338D1*
X932797Y1429647D1*
X930725Y1428956D1*
X950064D1*
X950985Y1429647D1*
X951906D1*
X952827Y1428956D1*
X953518Y1428266D1*
Y1423431D1*
X964569D1*
X1017523Y1424122D1*
X1070477D1*
X1123431Y1423431D1*
Y1265951D1*
X1070477Y1265260D1*
X1017523D1*
X964569Y1265951D1*
Y1423431D1*
X953518D1*
G37*
G36*
X1049526Y1498027D2*
Y1496645D1*
X1050216Y1497336D1*
X1049526Y1498027D1*
G37*
G36*
X1037784Y1497336D2*
D1*
G37*
G36*
X991507Y1395112D2*
X990816Y1394421D1*
X990589Y1393583D1*
X990125Y1393040D1*
X988744Y1392349D1*
X988053Y1391659D1*
Y1390968D1*
X986672Y1389586D1*
X985290Y1388896D1*
Y1387514D1*
X984600Y1386824D1*
X982527Y1386133D1*
Y1384061D1*
X981837Y1383370D1*
X979765Y1382679D1*
X979074Y1379917D1*
Y1378535D1*
X978383Y1377844D1*
X977002Y1377154D1*
X976311Y1374391D1*
Y1373010D1*
X975620Y1372319D1*
X974239Y1371628D1*
X973548Y1368865D1*
Y1364030D1*
X971476Y1363340D1*
X970785Y1361958D1*
X970095Y1349526D1*
X969404Y1345381D1*
Y1340546D1*
X970095Y1335712D1*
X970785Y1323970D1*
X971476Y1323279D1*
X972858Y1322588D1*
X973548Y1321897D1*
Y1317753D1*
X974239Y1314300D1*
X975620Y1313609D1*
X976311Y1312918D1*
Y1311537D1*
X977002Y1309465D1*
X977692Y1308774D1*
X979074Y1306011D1*
X979765Y1303939D1*
X982527Y1302558D1*
Y1300486D1*
X984600Y1299795D1*
X985290Y1299104D1*
Y1297723D1*
X985981Y1297032D1*
X987362Y1296341D1*
X988053Y1295651D1*
Y1294269D1*
X990816Y1293579D1*
Y1292197D1*
X991507Y1291507D1*
X993579Y1290816D1*
Y1288744D1*
X996341Y1288053D1*
X997032Y1287362D1*
Y1285981D1*
X1001867Y1283218D1*
X1004630Y1282527D1*
X1005321Y1281837D1*
Y1280455D1*
X1008774Y1279765D1*
X1010846Y1279074D1*
X1011403Y1278182D1*
X1011537Y1277692D1*
X1014300Y1277002D1*
X1017753Y1276311D1*
X1019135Y1275620D1*
X1019825Y1274930D1*
X1022588Y1274239D1*
X1028805Y1273548D1*
X1031567Y1272858D1*
Y1272167D1*
X1036402Y1271476D1*
X1047454D1*
X1050907Y1272167D1*
X1051598Y1272858D1*
X1053670Y1273548D1*
X1059195Y1274239D1*
X1062649Y1274930D1*
X1063340Y1275620D1*
X1064721Y1276311D1*
X1068175Y1277002D1*
X1070937Y1277692D1*
Y1279074D1*
X1076463Y1280455D1*
X1077154Y1281837D1*
Y1282527D1*
X1078075Y1283218D1*
X1078996D1*
X1079917Y1282527D1*
X1084751Y1277692D1*
X1086133Y1277002D1*
X1086689Y1276110D1*
X1086824Y1275620D1*
X1087514Y1274930D1*
X1088896Y1274239D1*
X1089452Y1273347D1*
X1089586Y1272858D1*
X1090277Y1272167D1*
X1091659Y1271476D1*
X1113761D1*
X1114452Y1272167D1*
Y1273548D1*
X1113761Y1274239D1*
X1112380Y1274930D1*
X1111561Y1275706D1*
X1111689Y1276311D1*
X1110998Y1277002D1*
X1108926Y1278383D1*
X1108107Y1279160D1*
X1108235Y1279765D1*
X1105473Y1282527D1*
X1104091Y1283218D1*
X1102710Y1284600D1*
Y1285290D1*
X1100638Y1285981D1*
X1099947Y1286672D1*
Y1288053D1*
X1097875Y1288744D1*
X1097184Y1289434D1*
Y1290816D1*
X1096493Y1291507D1*
X1094421Y1292197D1*
Y1296341D1*
X1096493Y1297032D1*
X1097184Y1297723D1*
Y1299795D1*
X1099256Y1300486D1*
Y1301867D1*
X1099947Y1302558D1*
X1102019Y1303249D1*
X1102710Y1303939D1*
Y1307393D1*
X1103400Y1308083D1*
X1104782Y1308774D1*
X1105473Y1309465D1*
X1106163Y1312228D1*
X1107545Y1314300D1*
X1108235Y1314990D1*
Y1319135D1*
X1110998Y1321897D1*
X1111689Y1326042D1*
X1112380Y1332258D1*
X1113070Y1335021D1*
X1113761Y1337093D1*
Y1346763D1*
X1113070Y1348835D1*
X1112380Y1351598D1*
X1111689Y1359886D1*
X1110998Y1363340D1*
X1108926Y1366103D1*
X1108235Y1371628D1*
X1106854Y1373700D1*
X1105473Y1377154D1*
X1104782Y1377844D1*
X1103400Y1378535D1*
X1102710Y1379226D1*
Y1381989D1*
X1102019Y1382679D1*
X1100638Y1383370D1*
X1099947Y1384061D1*
Y1385442D1*
X1099256Y1386133D1*
X1097875Y1386824D1*
X1097184Y1387514D1*
Y1388896D1*
X1090968Y1395112D1*
X1089586Y1395803D1*
X1088767Y1396579D1*
X1088896Y1397184D1*
X1088205Y1397875D1*
X1086133Y1398566D1*
X1085314Y1399342D1*
X1085442Y1399947D1*
X1084751Y1400638D1*
X1081989Y1401328D1*
Y1402710D1*
X1081298Y1403400D1*
X1079226Y1404091D1*
X1077844Y1404782D1*
X1077025Y1405558D1*
X1077154Y1406163D1*
X1073700Y1406854D1*
X1072319Y1407545D1*
X1070937Y1408926D1*
X1068175Y1409617D1*
X1066103Y1410308D1*
X1065283Y1411084D1*
X1065412Y1411689D1*
X1061958Y1412380D1*
X1056433Y1413761D1*
X1055051Y1414452D1*
X1046763Y1415142D1*
X1036402D1*
X1026732Y1414452D1*
X1020516Y1412380D1*
X1017063Y1411689D1*
X1016372Y1410998D1*
Y1410308D1*
X1014300Y1409617D1*
X1010846Y1408926D1*
X1005321Y1406163D1*
X1004630Y1405473D1*
Y1404782D1*
X1003249Y1404091D1*
X1000486Y1403400D1*
X996341Y1399256D1*
X994269Y1397875D1*
X993579Y1397184D1*
X993352Y1396346D1*
X992888Y1395803D1*
X991507Y1395112D1*
X1030877D1*
X1037784Y1395803D1*
X1044691D1*
X1051598Y1395112D1*
X1057123Y1394421D1*
Y1393040D1*
X1059195Y1392349D1*
X1063340Y1391659D1*
X1064721Y1390968D1*
X1065278Y1390076D1*
X1065412Y1389586D1*
X1073700Y1385442D1*
Y1384751D1*
X1074391Y1383370D1*
X1077154Y1382679D1*
Y1381298D1*
X1080607Y1377844D1*
X1081989Y1377154D1*
X1082679Y1376463D1*
Y1375082D1*
X1083370Y1373700D1*
X1084061Y1373010D1*
X1085442Y1372319D1*
X1086133Y1371628D1*
Y1369556D1*
X1088205Y1366793D1*
X1088896Y1363340D1*
X1089586Y1361958D1*
X1090968Y1359886D1*
X1091659Y1349526D1*
X1092349Y1346072D1*
X1093040Y1345381D1*
Y1341237D1*
X1092349Y1340546D1*
X1091659Y1336402D1*
X1090968Y1327423D1*
X1089586Y1325351D1*
X1088896Y1323970D1*
Y1320516D1*
X1086824Y1319825D1*
X1086133Y1317753D1*
Y1314990D1*
X1083370Y1314300D1*
X1082679Y1312918D1*
X1082452Y1312080D1*
X1081989Y1311537D1*
X1079917Y1310846D1*
X1079665Y1309997D1*
X1078951Y1309411D1*
X1078535Y1309465D1*
X1076463Y1311537D1*
X1075082Y1312228D1*
X1074263Y1313004D1*
X1074391Y1313609D1*
X1073700Y1314300D1*
X1072319Y1314990D1*
X1071500Y1315767D1*
X1071628Y1316372D1*
X1067484Y1320516D1*
X1066103Y1321207D1*
X1065283Y1321983D1*
X1065412Y1322588D1*
X1064030Y1323279D1*
X1062649Y1324660D1*
Y1325351D1*
X1061958Y1326042D1*
X1060577Y1326732D1*
X1059758Y1327509D1*
X1059886Y1328114D1*
X1058505Y1328805D1*
X1037093D1*
X1034330Y1328114D1*
Y1326732D1*
X1036402Y1326042D1*
X1037093Y1325351D1*
Y1323970D1*
X1040546Y1320516D1*
X1042619Y1319825D1*
X1043175Y1318934D1*
X1043309Y1318444D1*
X1044000Y1317753D1*
X1045381Y1317063D1*
X1046072Y1316372D1*
Y1314990D1*
X1048144Y1314300D1*
X1048835Y1313609D1*
Y1312228D1*
X1051598Y1311537D1*
Y1310156D1*
X1052288Y1309465D1*
X1054361Y1308083D1*
X1054917Y1307192D1*
X1055051Y1306702D1*
X1055742Y1306011D1*
X1057123Y1305321D1*
X1057680Y1304429D1*
X1057814Y1303939D1*
X1060577Y1301867D1*
X1061958Y1300486D1*
X1063340Y1299795D1*
Y1297723D1*
X1060577Y1294960D1*
X1057123Y1294269D1*
X1054361Y1293579D1*
X1054134Y1292741D1*
X1053670Y1292197D1*
X1041928Y1291507D1*
X1041007Y1290816D1*
X1040086D1*
X1039165Y1291507D1*
X1028114Y1292197D1*
X1027295Y1292974D1*
X1027423Y1293579D1*
X1022588Y1294269D1*
X1019135Y1294960D1*
Y1296341D1*
X1013609Y1297723D1*
Y1299104D1*
X1012918Y1299795D1*
X1010846Y1300486D1*
X1010027Y1301262D1*
X1010156Y1301867D1*
X1009465Y1302558D1*
X1005321Y1305321D1*
X1003939Y1306011D1*
X1003120Y1306788D1*
X1003249Y1307393D1*
X1001867Y1309465D1*
X1001176Y1310846D1*
X999104Y1311537D1*
Y1313609D1*
X997032Y1314300D1*
X996341Y1314990D1*
Y1317063D1*
X995651Y1319135D1*
X994960Y1319825D1*
X993579Y1322588D1*
X992888Y1326042D1*
X990816Y1328114D1*
Y1333639D1*
X990125Y1334330D1*
Y1351598D1*
X990816Y1352288D1*
X991507Y1358505D1*
X992888Y1360577D1*
X993579Y1364030D1*
X994960Y1366793D1*
X995651Y1367484D1*
X996341Y1369556D1*
Y1371628D1*
X998414Y1372319D1*
X999104Y1373700D1*
X999795Y1375772D1*
X999929Y1376262D1*
X1000486Y1377154D1*
X1001867Y1377844D1*
Y1379226D1*
X1002558Y1379917D1*
X1003939Y1380607D1*
X1004630Y1381298D1*
X1004764Y1381788D1*
X1005321Y1382679D1*
X1007393Y1383370D1*
X1008083Y1384061D1*
Y1385442D1*
X1012228Y1387514D1*
X1012918Y1388205D1*
X1016372Y1389586D1*
X1017753Y1390968D1*
X1019135Y1391659D1*
X1022588Y1392349D1*
X1024660Y1393040D1*
X1024795Y1393530D1*
X1025351Y1394421D1*
X1030877Y1395112D1*
X991507D1*
G37*
G36*
X893427Y1354361D2*
Y1352979D1*
X894808D1*
X895499Y1353670D1*
X894808Y1354361D1*
X893427D1*
G37*
G36*
X1195955Y1351598D2*
Y1350216D1*
X1196645Y1349526D1*
X1197336D1*
Y1351598D1*
X1195955D1*
G37*
G36*
X891355Y1350907D2*
X890664Y1350216D1*
X891355D1*
Y1350907D1*
G37*
G36*
X1196645Y1339165D2*
Y1338474D1*
X1197336D1*
X1196645Y1339165D1*
G37*
G36*
X893427Y1336402D2*
Y1335021D1*
X894808D1*
Y1335712D1*
X894117Y1336402D1*
X893427D1*
G37*
G36*
X1034330Y1195499D2*
Y1194117D1*
X1035712D1*
Y1194808D1*
X1035021Y1195499D1*
X1034330D1*
G37*
G36*
X1049526Y1192045D2*
Y1191355D1*
X1050216Y1192045D1*
X1049526D1*
G37*
X647088Y1722740D2*
D36*
X650935Y1724685D1*
X656683Y1730389D1*
Y1690241D1*
X680530Y1730389D2*
X674782Y1728488D1*
X670935Y1722740D1*
X669034Y1713189D1*
Y1707441D1*
X670935Y1697890D1*
X674782Y1692142D1*
X680530Y1690241D1*
X684333D1*
X690081Y1692142D1*
X693883Y1697890D1*
X695829Y1707441D1*
Y1713189D1*
X693883Y1722740D1*
X690081Y1728488D1*
X684333Y1730389D1*
X680530D1*
X693883Y1722740D2*
X670935Y1697890D1*
X777658Y1690241D2*
Y1730433D1*
X762359Y1690241D1*
X747061Y1730433D1*
Y1690241D1*
X790009Y1730433D2*
Y1690241D1*
X816804Y1730433D2*
Y1690241D1*
X790009Y1711288D2*
X816804D1*
X829156Y1717036D2*
X850202D1*
X829156Y1690241D1*
X850202D1*
X912930Y1730433D2*
X909084Y1728532D1*
X905281Y1724685D1*
X903336Y1720882D1*
X901434Y1715134D1*
Y1705540D1*
X903336Y1699836D1*
X905281Y1695989D1*
X909084Y1692187D1*
X912930Y1690241D1*
X920580D1*
X924382Y1692187D1*
X928229Y1695989D1*
X930130Y1699836D1*
X932032Y1705540D1*
Y1715134D1*
X930130Y1720882D1*
X928229Y1724685D1*
X924382Y1728532D1*
X920580Y1730433D1*
X912930D1*
X973079Y1720882D2*
X971178Y1724685D1*
X967331Y1728532D1*
X963528Y1730433D1*
X955879D1*
X952032Y1728532D1*
X948230Y1724685D1*
X946284Y1720882D1*
X944383Y1715134D1*
Y1705540D1*
X946284Y1699836D1*
X948230Y1695989D1*
X952032Y1692187D1*
X955879Y1690241D1*
X963528D1*
X967331Y1692187D1*
X971178Y1695989D1*
X973079Y1699836D1*
X985430Y1730433D2*
X1012225Y1690241D1*
Y1730433D2*
X985430Y1690241D1*
X1036072Y1730433D2*
X1032226Y1728532D1*
X1028423Y1724685D1*
X1026478Y1720882D1*
X1024576Y1715134D1*
Y1705540D1*
X1026478Y1699836D1*
X1028423Y1695989D1*
X1032226Y1692187D1*
X1036072Y1690241D1*
X1043722D1*
X1047524Y1692187D1*
X1051371Y1695989D1*
X1053272Y1699836D1*
X1055174Y1705540D1*
Y1715134D1*
X1053272Y1720882D1*
X1051371Y1724685D1*
X1047524Y1728532D1*
X1043722Y1730433D1*
X1036072D1*
X1121704D2*
X1117902D1*
X1114055Y1728532D1*
X1112154Y1722784D1*
Y1690241D1*
X1106406Y1717036D2*
X1119803D1*
X1143606D2*
X1139804Y1715134D1*
X1135957Y1711288D1*
X1134056Y1705540D1*
Y1701737D1*
X1135957Y1695989D1*
X1139804Y1692187D1*
X1143606Y1690241D1*
X1149354D1*
X1153201Y1692187D1*
X1157004Y1695989D1*
X1158949Y1701737D1*
Y1705540D1*
X1157004Y1711288D1*
X1153201Y1715134D1*
X1149354Y1717036D1*
X1143606D1*
X1171301D2*
Y1690241D1*
Y1705540D2*
X1173246Y1711288D1*
X1177049Y1715134D1*
X1180895Y1717036D1*
X1186643D1*
X1237876Y1711288D2*
X1255075D1*
X1260823Y1713233D1*
X1262769Y1715134D1*
X1264670Y1718937D1*
Y1722784D1*
X1262769Y1726586D1*
X1260823Y1728532D1*
X1255075Y1730433D1*
X1237876D1*
Y1690241D1*
X1251273Y1711288D2*
X1264670Y1690241D1*
X1299970Y1717036D2*
Y1690241D1*
Y1711288D2*
X1296167Y1715134D1*
X1292320Y1717036D1*
X1286616D1*
X1282770Y1715134D1*
X1278967Y1711288D1*
X1277022Y1705540D1*
Y1701737D1*
X1278967Y1695989D1*
X1282770Y1692187D1*
X1286616Y1690241D1*
X1292320D1*
X1296167Y1692187D1*
X1299970Y1695989D1*
X1335313Y1711288D2*
X1331466Y1715134D1*
X1327620Y1717036D1*
X1321916D1*
X1318069Y1715134D1*
X1314266Y1711288D1*
X1312321Y1705540D1*
Y1701737D1*
X1314266Y1695989D1*
X1318069Y1692187D1*
X1321916Y1690241D1*
X1327620D1*
X1331466Y1692187D1*
X1335313Y1695989D1*
X1370612Y1717036D2*
Y1690241D1*
Y1711288D2*
X1366810Y1715134D1*
X1362963Y1717036D1*
X1357259D1*
X1353412Y1715134D1*
X1349610Y1711288D1*
X1347664Y1705540D1*
Y1701737D1*
X1349610Y1695989D1*
X1353412Y1692187D1*
X1357259Y1690241D1*
X1362963D1*
X1366810Y1692187D1*
X1370612Y1695989D1*
X1382964Y1730433D2*
Y1690241D1*
X1395315Y1710315D2*
X1417423D1*
X742322Y1657608D2*
Y1617416D1*
X755720D1*
X761468Y1619362D1*
X765314Y1623164D1*
X767216Y1627011D1*
X769117Y1632715D1*
Y1642310D1*
X767216Y1648058D1*
X765314Y1651860D1*
X761468Y1655707D1*
X755720Y1657608D1*
X742322D1*
X804416Y1644211D2*
Y1617416D1*
Y1638463D2*
X800614Y1642310D1*
X796767Y1644211D1*
X791063D1*
X787216Y1642310D1*
X783414Y1638463D1*
X781468Y1632715D1*
Y1628912D1*
X783414Y1623164D1*
X787216Y1619362D1*
X791063Y1617416D1*
X796767D1*
X800614Y1619362D1*
X804416Y1623164D1*
X816768Y1644211D2*
Y1617416D1*
Y1636562D2*
X822516Y1642310D1*
X826362Y1644211D1*
X832066D1*
X835913Y1642310D1*
X837814Y1636562D1*
Y1617416D1*
X873114Y1644211D2*
Y1617416D1*
Y1638463D2*
X869311Y1642310D1*
X865464Y1644211D1*
X859760D1*
X855914Y1642310D1*
X852111Y1638463D1*
X850166Y1632715D1*
Y1628912D1*
X852111Y1623164D1*
X855914Y1619362D1*
X859760Y1617416D1*
X865464D1*
X869311Y1619362D1*
X873114Y1623164D1*
X924346Y1649915D2*
X928192Y1651860D1*
X933940Y1657564D1*
Y1617416D1*
X971185Y1644211D2*
X969240Y1638463D1*
X965437Y1634616D1*
X959689Y1632715D1*
X957788D1*
X952040Y1634616D1*
X948237Y1638463D1*
X946292Y1644211D1*
Y1646112D1*
X948237Y1651860D1*
X952040Y1655663D1*
X957788Y1657564D1*
X959689D1*
X965437Y1655663D1*
X969240Y1651860D1*
X971185Y1644211D1*
Y1634616D1*
X969240Y1625066D1*
X965437Y1619318D1*
X959689Y1617416D1*
X955887D1*
X950139Y1619318D1*
X948237Y1623164D1*
X1008430Y1644211D2*
X1006485Y1638463D1*
X1002682Y1634616D1*
X996934Y1632715D1*
X995033D1*
X989285Y1634616D1*
X985482Y1638463D1*
X983537Y1644211D1*
Y1646112D1*
X985482Y1651860D1*
X989285Y1655663D1*
X995033Y1657564D1*
X996934D1*
X1002682Y1655663D1*
X1006485Y1651860D1*
X1008430Y1644211D1*
Y1634616D1*
X1006485Y1625066D1*
X1002682Y1619318D1*
X996934Y1617416D1*
X993131D1*
X987383Y1619318D1*
X985482Y1623164D1*
X1022727Y1648014D2*
Y1649915D1*
X1024628Y1653762D1*
X1026529Y1655663D1*
X1030376Y1657564D1*
X1038026D1*
X1041828Y1655663D1*
X1043729Y1653762D1*
X1045675Y1649915D1*
Y1646112D1*
X1043729Y1642266D1*
X1039927Y1636562D1*
X1020781Y1617416D1*
X1047576D1*
X1127504Y1648058D2*
X1125603Y1651860D1*
X1121756Y1655707D1*
X1117954Y1657608D1*
X1110304D1*
X1106458Y1655707D1*
X1102655Y1651860D1*
X1100710Y1648058D1*
X1098808Y1642310D1*
Y1632715D1*
X1100710Y1627011D1*
X1102655Y1623164D1*
X1106458Y1619362D1*
X1110304Y1617416D1*
X1117954D1*
X1121756Y1619362D1*
X1125603Y1623164D1*
X1127504Y1627011D1*
X1149406Y1644211D2*
X1145604Y1642310D1*
X1141757Y1638463D1*
X1139856Y1632715D1*
Y1628912D1*
X1141757Y1623164D1*
X1145604Y1619362D1*
X1149406Y1617416D1*
X1155154D1*
X1159001Y1619362D1*
X1162804Y1623164D1*
X1164749Y1628912D1*
Y1632715D1*
X1162804Y1638463D1*
X1159001Y1642310D1*
X1155154Y1644211D1*
X1149406D1*
X1177100D2*
Y1625066D1*
X1179002Y1619362D1*
X1182848Y1617416D1*
X1188596D1*
X1192399Y1619362D1*
X1198147Y1625066D1*
Y1644211D2*
Y1617416D1*
X1210498Y1644211D2*
Y1617416D1*
Y1636562D2*
X1216246Y1642310D1*
X1220093Y1644211D1*
X1225797D1*
X1229644Y1642310D1*
X1231545Y1636562D1*
Y1617416D1*
X1249645Y1657608D2*
Y1625066D1*
X1251546Y1619362D1*
X1255393Y1617416D1*
X1259195D1*
X1243897Y1644211D2*
X1257294D1*
X1271547Y1632715D2*
X1294494D1*
Y1636562D1*
X1292593Y1640409D1*
X1290692Y1642310D1*
X1286845Y1644211D1*
X1281097D1*
X1277295Y1642310D1*
X1273448Y1638463D1*
X1271547Y1632715D1*
Y1628912D1*
X1273448Y1623164D1*
X1277295Y1619362D1*
X1281097Y1617416D1*
X1286845D1*
X1290692Y1619362D1*
X1294494Y1623164D1*
X1306846Y1644211D2*
Y1617416D1*
Y1632715D2*
X1308791Y1638463D1*
X1312594Y1642310D1*
X1316441Y1644211D1*
X1322189D1*
X847375Y942240D2*
X845474Y946043D1*
X841627Y949890D1*
X837824Y951791D1*
X830175D1*
X826328Y949890D1*
X822526Y946043D1*
X820580Y942240D1*
X818679Y936492D1*
Y926898D1*
X820580Y921194D1*
X822526Y917347D1*
X826328Y913545D1*
X830175Y911599D1*
X837824D1*
X841627Y913545D1*
X845474Y917347D1*
X847375Y921194D1*
X859726Y944098D2*
X863573Y946043D1*
X869321Y951747D1*
Y911599D1*
X1392600Y902578D2*
Y871981D1*
X1390698Y866233D1*
X1388753Y864332D1*
X1384950Y862386D1*
X1381104D1*
X1377301Y864332D1*
X1375400Y866233D1*
X1373454Y871981D1*
Y875784D1*
X1404951Y894885D2*
X1408798Y896830D1*
X1414546Y902534D1*
Y862386D1*
X1319627Y2478470D2*
X1336827Y2478471D1*
X1342575Y2480417D1*
X1344520Y2482318D1*
X1346422Y2486120D1*
X1346421Y2489967D1*
X1344520Y2493770D1*
X1342574Y2495715D1*
X1336826Y2497616D1*
X1319627D1*
X1319628Y2457424D1*
X1333024Y2478471D2*
X1346422Y2457425D1*
X1358773Y2489923D2*
X1362620Y2491869D1*
X1368367Y2497573D1*
X1368369Y2457425D1*
X1050780Y2302261D2*
X1067980D1*
X1073728Y2304207D1*
X1075674Y2306108D1*
X1077575Y2309910D1*
Y2313757D1*
X1075674Y2317560D1*
X1073728Y2319505D1*
X1067980Y2321407D1*
X1050780D1*
Y2281215D1*
X1064178Y2302261D2*
X1077575Y2281215D1*
X1091872Y2311812D2*
Y2313713D1*
X1093773Y2317560D1*
X1095674Y2319461D1*
X1099521Y2321362D1*
X1107170D1*
X1110973Y2319461D1*
X1112874Y2317560D1*
X1114820Y2313713D1*
Y2309910D1*
X1112874Y2306064D1*
X1109072Y2300360D1*
X1089926Y2281215D1*
X1116721D1*
X761027Y2478470D2*
X778227Y2478471D1*
X783975Y2480416D1*
X785920Y2482318D1*
X787822Y2486120D1*
X787821Y2489967D1*
X785920Y2493769D1*
X783975Y2495715D1*
X778226Y2497616D1*
X761027Y2497615D1*
X761028Y2457423D1*
X774424Y2478470D2*
X787822Y2457424D1*
X804019Y2497573D2*
X825022D1*
X813570Y2482274D1*
X819318D1*
X823121Y2480373D1*
X825022Y2478472D1*
X826968Y2472724D1*
Y2468921D1*
X825023Y2463173D1*
X821220Y2459327D1*
X815472Y2457425D1*
X809724D1*
X804021Y2459326D1*
X802119Y2461271D1*
X800174Y2465074D1*
X810079Y728471D2*
X827279D1*
X833027Y730417D1*
X834972Y732318D1*
X836874Y736120D1*
Y739967D1*
X834972Y743770D1*
X833027Y745715D1*
X827279Y747616D1*
X810079D1*
Y707424D1*
X823476Y728471D2*
X836874Y707424D1*
X868370D2*
Y747572D1*
X849225Y720822D1*
X877921D1*
M02*
