G04 DipTrace 4.3.0.4*
G04 racal_dana_OCXO.GBL*
%MOIN*%
G04 #@! TF.FileFunction,Copper,L2,Bot*
G04 #@! TF.Part,Single*
%AMOUTLINE0*
4,1,8,
0.01263,-0.030487,
-0.012628,-0.030487,
-0.030487,-0.01263,
-0.030487,0.012628,
-0.01263,0.030487,
0.012628,0.030487,
0.030487,0.01263,
0.030487,-0.012628,
0.01263,-0.030487,
0*%
G04 #@! TA.AperFunction,CopperBalancing*
%ADD17C,0.025*%
%ADD18C,0.013*%
G04 #@! TA.AperFunction,ComponentPad*
%ADD20C,0.059055*%
%ADD21C,0.07874*%
%ADD24R,0.059055X0.059055*%
%ADD37OUTLINE0*%
%FSLAX26Y26*%
G04*
G70*
G90*
G75*
G01*
G04 Bottom*
%LPD*%
X448009Y2817631D2*
D17*
X998209D1*
X1089798D2*
X1639997D1*
X448009Y2792762D2*
X955453D1*
X1132554D2*
X1639997D1*
X448009Y2767894D2*
X933331D1*
X1154659D2*
X1639997D1*
X448009Y2743025D2*
X920017D1*
X1167971D2*
X1639997D1*
X448009Y2718156D2*
X912751D1*
X1175256D2*
X1639997D1*
X448009Y2693287D2*
X910508D1*
X1177499D2*
X1639997D1*
X448009Y2668419D2*
X913020D1*
X1174969D2*
X1639997D1*
X448009Y2643550D2*
X920609D1*
X1167398D2*
X1639997D1*
X448009Y2618681D2*
X934318D1*
X1153672D2*
X1639997D1*
X448009Y2593812D2*
X957104D1*
X1130885D2*
X1639997D1*
X448009Y2568944D2*
X1002516D1*
X1085492D2*
X1639997D1*
X448009Y2544075D2*
X1639997D1*
X448009Y2519206D2*
X1639997D1*
X448009Y2494337D2*
X1639997D1*
X448009Y2469469D2*
X1639997D1*
X448009Y2444600D2*
X574256D1*
X613740D2*
X974202D1*
X1013795D2*
X1124252D1*
X1163738D2*
X1524218D1*
X1563791D2*
X1639997D1*
X448009Y2419731D2*
X545063D1*
X642932D2*
X945064D1*
X1042933D2*
X1095079D1*
X1192929D2*
X1495062D1*
X1592948D2*
X1639997D1*
X448009Y2394862D2*
X540381D1*
X647633D2*
X940364D1*
X1047634D2*
X1090378D1*
X1197630D2*
X1490379D1*
X1597631D2*
X1639997D1*
X448009Y2369993D2*
X543790D1*
X644206D2*
X943791D1*
X1044207D2*
X1093786D1*
X1194220D2*
X1493787D1*
X1594203D2*
X1639997D1*
X448009Y2345125D2*
X569483D1*
X618513D2*
X969501D1*
X1018496D2*
X1119480D1*
X1168509D2*
X1519517D1*
X1568492D2*
X1639997D1*
X448009Y2320256D2*
X1639997D1*
X448009Y2295387D2*
X1639997D1*
X448009Y2270518D2*
X1639997D1*
X448009Y2245650D2*
X1639997D1*
X448009Y2220781D2*
X1639997D1*
X448009Y2195912D2*
X1639997D1*
X448009Y2171043D2*
X1639997D1*
X448009Y2146175D2*
X1639997D1*
X448009Y2121306D2*
X1639997D1*
X448009Y2096437D2*
X931572D1*
X1230033D2*
X1639997D1*
X448009Y2071568D2*
X931572D1*
X1236906D2*
X1639997D1*
X448009Y2046699D2*
X931572D1*
X1230571D2*
X1639997D1*
X448009Y2021831D2*
X931572D1*
X1036904D2*
X1072274D1*
X1096220D2*
X1172265D1*
X1196213D2*
X1639997D1*
X448009Y1996962D2*
X1639997D1*
X448009Y1972093D2*
X1639997D1*
X448009Y1947224D2*
X1639997D1*
X448009Y1922356D2*
X1639997D1*
X448009Y1897487D2*
X1639997D1*
X448009Y1872618D2*
X633320D1*
X692182D2*
X1383031D1*
X1442486D2*
X1639997D1*
X448009Y1847749D2*
X607592D1*
X717930D2*
X1357446D1*
X1468071D2*
X1639997D1*
X448009Y1822881D2*
X600361D1*
X725143D2*
X1350251D1*
X1475248D2*
X1639997D1*
X448009Y1798012D2*
X604021D1*
X721483D2*
X1353911D1*
X1471588D2*
X1639997D1*
X448009Y1773143D2*
X621533D1*
X703971D2*
X1371369D1*
X1454130D2*
X1639997D1*
X448009Y1748274D2*
X1639997D1*
X448009Y1723406D2*
X1639997D1*
X448009Y1698537D2*
X1639997D1*
X448009Y1673668D2*
X1639997D1*
X448009Y1648799D2*
X1639997D1*
X448009Y1623930D2*
X1639997D1*
X448009Y1599062D2*
X1639997D1*
X448009Y1574193D2*
X1639997D1*
X448009Y1549324D2*
X1639997D1*
X448009Y1524455D2*
X1639997D1*
X448009Y1499587D2*
X637681D1*
X687858D2*
X1639997D1*
X448009Y1474718D2*
X608722D1*
X716818D2*
X1639997D1*
X448009Y1449849D2*
X600541D1*
X724982D2*
X1639997D1*
X448009Y1424980D2*
X603340D1*
X722182D2*
X1639997D1*
X448009Y1400112D2*
X619325D1*
X706196D2*
X1639997D1*
X448009Y1375243D2*
X1639997D1*
X448009Y1350374D2*
X1639997D1*
X448009Y1325505D2*
X1639997D1*
X448009Y1300636D2*
X1639997D1*
X448009Y1275768D2*
X1639997D1*
X448009Y1250899D2*
X1639997D1*
X448009Y1226030D2*
X1639997D1*
X448009Y1201161D2*
X1639997D1*
X448009Y1176293D2*
X1639997D1*
X448009Y1151424D2*
X1639997D1*
X448009Y1126555D2*
X643315D1*
X682224D2*
X1393259D1*
X1432294D2*
X1639997D1*
X448009Y1101686D2*
X609961D1*
X715597D2*
X1359940D1*
X1465613D2*
X1639997D1*
X448009Y1076818D2*
X600774D1*
X724766D2*
X1350772D1*
X1474781D2*
X1639997D1*
X448009Y1051949D2*
X602730D1*
X722810D2*
X1352745D1*
X1472807D2*
X1639997D1*
X448009Y1027080D2*
X617316D1*
X708223D2*
X1367349D1*
X1458202D2*
X1639997D1*
X448009Y1002211D2*
X1639997D1*
X448009Y977343D2*
X1639997D1*
X448009Y952474D2*
X1639997D1*
X448009Y927605D2*
X1639997D1*
X448009Y902736D2*
X1639997D1*
X448009Y877867D2*
X704497D1*
X783508D2*
X904497D1*
X983509D2*
X1639997D1*
X448009Y852999D2*
X692152D1*
X795852D2*
X892154D1*
X995853D2*
X1639997D1*
X448009Y828130D2*
X693911D1*
X794094D2*
X893912D1*
X994094D2*
X1154736D1*
X1233262D2*
X1254727D1*
X1333272D2*
X1354736D1*
X1433264D2*
X1454566D1*
X1533434D2*
X1554738D1*
X448009Y803261D2*
X712230D1*
X775776D2*
X912231D1*
X975776D2*
X1142194D1*
X448009Y778392D2*
X1143827D1*
X448009Y753524D2*
X1161860D1*
X1226139D2*
X1261869D1*
X1326131D2*
X1361860D1*
X1426140D2*
X1461672D1*
X1526329D2*
X1561860D1*
X1626140D2*
X1639997D1*
X448009Y728655D2*
X1639997D1*
X448009Y703786D2*
X1639997D1*
X448009Y678917D2*
X604112D1*
X683894D2*
X1004112D1*
X1083895D2*
X1639997D1*
X448009Y654049D2*
X590367D1*
X697619D2*
X990369D1*
X1097621D2*
X1639997D1*
X448009Y629180D2*
X590493D1*
X697512D2*
X990493D1*
X1097513D2*
X1639997D1*
X448009Y604311D2*
X608883D1*
X679121D2*
X1008885D1*
X1079122D2*
X1639997D1*
X448009Y579442D2*
X1639997D1*
X448009Y554573D2*
X1639997D1*
X448009Y529705D2*
X1156261D1*
X1231738D2*
X1256252D1*
X1331747D2*
X1356261D1*
X1431738D2*
X1456092D1*
X1531908D2*
X1556262D1*
X448009Y504836D2*
X1142517D1*
X448009Y479967D2*
X1143343D1*
X448009Y455098D2*
X1159814D1*
X1228185D2*
X1259823D1*
X1328176D2*
X1359814D1*
X1428185D2*
X1459644D1*
X1528356D2*
X1559815D1*
X794075Y840940D2*
X793795Y837892D1*
X793329Y834869D1*
X792681Y831878D1*
X791852Y828933D1*
X790844Y826043D1*
X789663Y823222D1*
X788311Y820476D1*
X786794Y817819D1*
X785118Y815259D1*
X783290Y812804D1*
X781315Y810467D1*
X779201Y808255D1*
X776957Y806176D1*
X774589Y804238D1*
X772109Y802446D1*
X769522Y800810D1*
X766843Y799335D1*
X764077Y798025D1*
X761236Y796886D1*
X758332Y795923D1*
X755375Y795139D1*
X752375Y794535D1*
X749344Y794118D1*
X746293Y793885D1*
X743234Y793839D1*
X740177Y793978D1*
X737134Y794304D1*
X734117Y794815D1*
X731136Y795509D1*
X728205Y796383D1*
X725331Y797434D1*
X722528Y798660D1*
X719803Y800054D1*
X717169Y801610D1*
X714635Y803324D1*
X712210Y805190D1*
X709903Y807201D1*
X707723Y809348D1*
X705677Y811623D1*
X703776Y814021D1*
X702022Y816529D1*
X700425Y819139D1*
X698991Y821841D1*
X697724Y824627D1*
X696629Y827484D1*
X695710Y830403D1*
X694971Y833371D1*
X694415Y836381D1*
X694042Y839417D1*
X693856Y842472D1*
Y845531D1*
X694042Y848585D1*
X694415Y851623D1*
X694971Y854631D1*
X695711Y857601D1*
X696630Y860520D1*
X697726Y863377D1*
X698992Y866161D1*
X700428Y868865D1*
X702024Y871475D1*
X703777Y873983D1*
X705680Y876379D1*
X707724Y878655D1*
X709906Y880802D1*
X712213Y882812D1*
X714638Y884677D1*
X717172Y886392D1*
X719806Y887949D1*
X722530Y889341D1*
X725335Y890567D1*
X728209Y891618D1*
X731140Y892492D1*
X734121Y893185D1*
X737138Y893697D1*
X740180Y894022D1*
X743236Y894163D1*
X746297Y894115D1*
X749348Y893882D1*
X752378Y893463D1*
X755378Y892861D1*
X758336Y892076D1*
X761240Y891113D1*
X764080Y889974D1*
X766845Y888664D1*
X769526Y887189D1*
X772112Y885552D1*
X774592Y883761D1*
X776959Y881822D1*
X779203Y879743D1*
X781318Y877530D1*
X783293Y875192D1*
X785121Y872739D1*
X786797Y870178D1*
X788312Y867521D1*
X789664Y864776D1*
X790845Y861953D1*
X791853Y859064D1*
X792682Y856118D1*
X793331Y853129D1*
X793795Y850104D1*
X794075Y847056D1*
X794168Y844000D1*
X794075Y840940D1*
X993329Y834865D2*
X990811Y825957D1*
X986698Y817661D1*
X981131Y810265D1*
X974301Y804016D1*
X966437Y799130D1*
X957811Y795770D1*
X948713Y794054D1*
X939455Y794038D1*
X930352Y795724D1*
X921714Y799054D1*
X913835Y803915D1*
X906983Y810139D1*
X901391Y817518D1*
X897251Y825798D1*
X894702Y834698D1*
X893832Y843915D1*
X894671Y853135D1*
X897189Y862043D1*
X901302Y870339D1*
X906869Y877735D1*
X913699Y883984D1*
X921563Y888870D1*
X930189Y892230D1*
X939287Y893946D1*
X948545Y893962D1*
X957648Y892276D1*
X966286Y888946D1*
X974165Y884085D1*
X981017Y877861D1*
X986609Y870482D1*
X990749Y862202D1*
X993298Y853302D1*
X994168Y844000D1*
X993329Y834865D1*
X1174672Y2684822D2*
X1173713Y2675728D1*
X1172122Y2666724D1*
X1169908Y2657853D1*
X1167080Y2649159D1*
X1163652Y2640682D1*
X1159640Y2632466D1*
X1155067Y2624549D1*
X1149951Y2616971D1*
X1144320Y2609768D1*
X1138199Y2602975D1*
X1131621Y2596625D1*
X1124615Y2590751D1*
X1117217Y2585378D1*
X1109461Y2580535D1*
X1101387Y2576245D1*
X1093033Y2572530D1*
X1084440Y2569406D1*
X1075650Y2566887D1*
X1066706Y2564990D1*
X1057651Y2563720D1*
X1048530Y2563085D1*
X1039387Y2563088D1*
X1030266Y2563728D1*
X1021213Y2565004D1*
X1012270Y2566908D1*
X1003482Y2569430D1*
X994891Y2572560D1*
X986539Y2576282D1*
X978467Y2580577D1*
X970715Y2585425D1*
X963320Y2590802D1*
X956318Y2596681D1*
X949743Y2603034D1*
X943627Y2609831D1*
X938000Y2617037D1*
X932890Y2624619D1*
X928320Y2632539D1*
X924315Y2640759D1*
X920892Y2649236D1*
X918070Y2657933D1*
X915861Y2666806D1*
X914276Y2675810D1*
X913323Y2684904D1*
X913007Y2694041D1*
X913328Y2703178D1*
X914287Y2712272D1*
X915878Y2721276D1*
X918092Y2730147D1*
X920920Y2738841D1*
X924348Y2747318D1*
X928360Y2755534D1*
X932933Y2763451D1*
X938049Y2771029D1*
X943680Y2778232D1*
X949801Y2785025D1*
X956379Y2791375D1*
X963385Y2797249D1*
X970783Y2802622D1*
X978539Y2807465D1*
X986613Y2811755D1*
X994967Y2815470D1*
X1003560Y2818594D1*
X1012350Y2821113D1*
X1021294Y2823010D1*
X1030349Y2824280D1*
X1039470Y2824915D1*
X1048613Y2824912D1*
X1057734Y2824272D1*
X1066787Y2822996D1*
X1075730Y2821092D1*
X1084518Y2818570D1*
X1093109Y2815440D1*
X1101461Y2811718D1*
X1109533Y2807423D1*
X1117285Y2802575D1*
X1124680Y2797198D1*
X1131682Y2791319D1*
X1138257Y2784966D1*
X1144373Y2778169D1*
X1150000Y2770963D1*
X1155110Y2763381D1*
X1159680Y2755461D1*
X1163685Y2747241D1*
X1167108Y2738764D1*
X1169930Y2730067D1*
X1172139Y2721194D1*
X1173724Y2712190D1*
X1174677Y2703096D1*
X1174993Y2694000D1*
X1174672Y2684822D1*
X1243990Y490020D2*
X1243795Y487892D1*
X1243329Y484869D1*
X1243028Y483367D1*
X1242681Y481877D1*
X1242289Y480396D1*
X1241850Y478929D1*
X1241369Y477476D1*
X1240843Y476038D1*
X1239660Y473217D1*
X1238308Y470471D1*
X1236791Y467814D1*
X1235115Y465253D1*
X1233286Y462801D1*
X1231311Y460463D1*
X1229197Y458252D1*
X1226953Y456172D1*
X1224585Y454234D1*
X1222104Y452444D1*
X1219518Y450807D1*
X1216837Y449332D1*
X1215463Y448656D1*
X1214071Y448022D1*
X1212657Y447430D1*
X1211228Y446883D1*
X1209782Y446379D1*
X1208322Y445920D1*
X1206827Y445500D1*
X1281172D1*
X1278916Y446154D1*
X1277175Y446738D1*
X1275455Y447386D1*
X1273761Y448096D1*
X1272094Y448867D1*
X1270457Y449699D1*
X1268850Y450592D1*
X1261302Y455951D1*
X1254867Y462608D1*
X1249765Y470333D1*
X1246169Y478865D1*
X1245648Y480626D1*
X1245190Y482406D1*
X1244799Y484199D1*
X1244472Y486008D1*
X1244214Y487827D1*
X1244003Y489924D1*
X1181173Y445500D2*
X1179638Y445932D1*
X1178177Y446392D1*
X1176732Y446898D1*
X1175303Y447446D1*
X1173891Y448038D1*
X1172499Y448673D1*
X1171125Y449350D1*
X1169773Y450070D1*
X1168444Y450829D1*
X1165860Y452467D1*
X1163381Y454260D1*
X1161014Y456201D1*
X1158772Y458282D1*
X1156659Y460496D1*
X1154686Y462835D1*
X1152860Y465290D1*
X1151186Y467852D1*
X1149672Y470510D1*
X1148322Y473256D1*
X1147142Y476080D1*
X1146136Y478970D1*
X1145310Y481915D1*
X1144663Y484906D1*
X1144201Y487930D1*
X1143923Y490978D1*
X1143832Y494037D1*
X1143928Y497094D1*
X1144210Y500142D1*
X1144677Y503165D1*
X1145327Y506156D1*
X1146159Y509101D1*
X1147168Y511990D1*
X1148352Y514811D1*
X1149706Y517555D1*
X1151224Y520211D1*
X1152902Y522770D1*
X1154732Y525222D1*
X1156709Y527558D1*
X1158824Y529769D1*
X1161070Y531848D1*
X1163438Y533785D1*
X1165920Y535573D1*
X1168507Y537209D1*
X1171189Y538682D1*
X1173955Y539990D1*
X1176797Y541126D1*
X1179701Y542087D1*
X1182659Y542869D1*
X1185660Y543470D1*
X1188692Y543886D1*
X1191741Y544117D1*
X1194802Y544161D1*
X1197858Y544020D1*
X1200900Y543692D1*
X1203917Y543178D1*
X1206896Y542482D1*
X1209828Y541605D1*
X1212701Y540552D1*
X1215504Y539325D1*
X1218227Y537930D1*
X1220861Y536371D1*
X1223394Y534655D1*
X1225818Y532787D1*
X1228123Y530776D1*
X1230302Y528627D1*
X1232345Y526349D1*
X1234245Y523951D1*
X1235997Y521442D1*
X1237592Y518831D1*
X1239025Y516127D1*
X1240290Y513341D1*
X1241383Y510483D1*
X1241864Y509030D1*
X1242301Y507562D1*
X1242692Y506083D1*
X1243037Y504591D1*
X1243337Y503089D1*
X1243592Y501580D1*
X1243801Y500063D1*
X1243997Y498071D1*
X1244276Y500652D1*
X1244552Y502469D1*
X1244895Y504273D1*
X1245304Y506064D1*
X1245778Y507839D1*
X1246318Y509596D1*
X1246921Y511331D1*
X1250907Y519686D1*
X1256361Y527168D1*
X1263096Y533518D1*
X1270883Y538525D1*
X1279459Y542014D1*
X1288529Y543869D1*
X1297785Y544025D1*
X1306913Y542478D1*
X1315601Y539280D1*
X1323552Y534539D1*
X1330499Y528419D1*
X1336202Y521126D1*
X1340467Y512909D1*
X1343151Y504049D1*
X1343486Y502243D1*
X1343755Y500425D1*
X1343996Y498058D1*
X1344211Y500155D1*
X1344423Y501671D1*
X1344680Y503180D1*
X1344982Y504681D1*
X1345331Y506172D1*
X1345724Y507651D1*
X1346164Y509117D1*
X1346647Y510570D1*
X1347745Y513427D1*
X1349016Y516210D1*
X1350454Y518911D1*
X1352054Y521520D1*
X1353810Y524025D1*
X1355714Y526420D1*
X1357762Y528693D1*
X1359945Y530839D1*
X1362253Y532845D1*
X1364681Y534709D1*
X1367217Y536420D1*
X1369853Y537974D1*
X1372579Y539365D1*
X1375385Y540587D1*
X1378259Y541634D1*
X1381193Y542505D1*
X1384173Y543196D1*
X1387190Y543703D1*
X1390234Y544026D1*
X1393290Y544163D1*
X1396350Y544113D1*
X1399400Y543877D1*
X1402430Y543454D1*
X1405430Y542848D1*
X1408387Y542060D1*
X1411290Y541094D1*
X1414129Y539953D1*
X1416894Y538640D1*
X1419572Y537161D1*
X1422156Y535522D1*
X1424635Y533728D1*
X1427000Y531786D1*
X1429241Y529705D1*
X1431353Y527490D1*
X1433325Y525151D1*
X1435151Y522696D1*
X1436824Y520133D1*
X1438337Y517474D1*
X1439686Y514727D1*
X1440865Y511903D1*
X1441869Y509013D1*
X1442304Y507545D1*
X1442696Y506064D1*
X1443041Y504573D1*
X1443341Y503072D1*
X1443594Y501562D1*
X1443802Y500045D1*
X1443941Y498741D1*
X1444136Y500483D1*
X1444407Y502301D1*
X1444743Y504106D1*
X1445144Y505899D1*
X1445612Y507676D1*
X1446144Y509434D1*
X1446740Y511172D1*
X1450699Y519564D1*
X1456134Y527085D1*
X1462858Y533479D1*
X1470643Y538529D1*
X1479223Y542063D1*
X1488306Y543959D1*
X1497583Y544156D1*
X1506739Y542643D1*
X1515459Y539474D1*
X1523450Y534757D1*
X1530437Y528651D1*
X1536184Y521366D1*
X1540495Y513148D1*
X1543222Y504280D1*
X1543564Y502474D1*
X1543841Y500659D1*
X1544058Y498749D1*
X1544276Y500652D1*
X1544552Y502469D1*
X1544895Y504273D1*
X1545304Y506064D1*
X1545778Y507839D1*
X1546318Y509596D1*
X1546921Y511331D1*
X1550907Y519686D1*
X1556361Y527168D1*
X1563096Y533518D1*
X1570883Y538525D1*
X1579459Y542014D1*
X1588529Y543869D1*
X1597785Y544025D1*
X1606913Y542478D1*
X1615601Y539280D1*
X1623552Y534539D1*
X1630499Y528419D1*
X1636202Y521126D1*
X1640467Y512909D1*
X1641129Y511196D1*
X1641727Y509458D1*
X1642261Y507701D1*
X1642500Y506797D1*
Y781163D1*
X1640811Y775957D1*
X1636698Y767661D1*
X1631131Y760265D1*
X1624301Y754016D1*
X1616437Y749130D1*
X1607811Y745770D1*
X1598713Y744054D1*
X1589455Y744038D1*
X1580352Y745724D1*
X1571714Y749054D1*
X1563835Y753915D1*
X1556983Y760139D1*
X1551391Y767518D1*
X1547251Y775798D1*
X1544702Y784698D1*
X1544395Y786509D1*
X1544154Y788331D1*
X1544062Y789290D1*
X1543446Y784865D1*
X1540927Y775934D1*
X1536807Y767619D1*
X1531231Y760202D1*
X1524387Y753937D1*
X1516508Y749035D1*
X1507862Y745665D1*
X1498745Y743941D1*
X1489466Y743921D1*
X1480341Y745608D1*
X1471681Y748941D1*
X1463782Y753810D1*
X1456912Y760046D1*
X1451304Y767440D1*
X1447151Y775736D1*
X1444592Y784656D1*
X1444283Y786467D1*
X1444042Y788289D1*
X1443946Y789290D1*
X1443795Y787892D1*
X1443329Y784869D1*
X1443028Y783367D1*
X1442681Y781877D1*
X1442289Y780396D1*
X1441850Y778929D1*
X1441369Y777476D1*
X1440843Y776038D1*
X1439660Y773217D1*
X1438308Y770471D1*
X1436791Y767814D1*
X1435115Y765253D1*
X1433286Y762801D1*
X1431311Y760463D1*
X1429197Y758252D1*
X1426953Y756172D1*
X1424585Y754234D1*
X1422104Y752444D1*
X1419518Y750807D1*
X1416837Y749332D1*
X1414072Y748022D1*
X1411231Y746885D1*
X1408327Y745921D1*
X1405370Y745138D1*
X1402370Y744535D1*
X1399339Y744117D1*
X1396287Y743885D1*
X1393228Y743839D1*
X1390171Y743979D1*
X1387129Y744304D1*
X1384112Y744816D1*
X1381133Y745510D1*
X1378199Y746386D1*
X1375327Y747437D1*
X1372522Y748661D1*
X1369798Y750055D1*
X1367164Y751613D1*
X1364630Y753328D1*
X1362205Y755194D1*
X1359899Y757205D1*
X1357719Y759352D1*
X1355675Y761629D1*
X1353772Y764025D1*
X1352020Y766533D1*
X1350423Y769143D1*
X1348988Y771846D1*
X1347722Y774631D1*
X1346627Y777490D1*
X1346146Y778942D1*
X1345709Y780409D1*
X1345316Y781890D1*
X1344969Y783381D1*
X1344668Y784882D1*
X1344412Y786391D1*
X1344203Y787908D1*
X1344003Y789929D1*
X1343329Y784865D1*
X1340811Y775957D1*
X1336698Y767661D1*
X1331131Y760265D1*
X1324301Y754016D1*
X1316437Y749130D1*
X1307811Y745770D1*
X1298713Y744054D1*
X1289455Y744038D1*
X1280352Y745724D1*
X1271714Y749054D1*
X1263835Y753915D1*
X1256983Y760139D1*
X1251391Y767518D1*
X1247251Y775798D1*
X1244702Y784698D1*
X1244395Y786509D1*
X1244154Y788331D1*
X1244001Y789923D1*
X1243795Y787892D1*
X1243329Y784869D1*
X1243028Y783367D1*
X1242681Y781877D1*
X1242289Y780396D1*
X1241850Y778929D1*
X1241369Y777476D1*
X1240843Y776038D1*
X1239660Y773217D1*
X1238308Y770471D1*
X1236791Y767814D1*
X1235115Y765253D1*
X1233286Y762801D1*
X1231311Y760463D1*
X1229197Y758252D1*
X1226953Y756172D1*
X1224585Y754234D1*
X1222104Y752444D1*
X1219518Y750807D1*
X1216837Y749332D1*
X1214072Y748022D1*
X1211231Y746885D1*
X1208327Y745921D1*
X1205370Y745138D1*
X1202370Y744535D1*
X1199339Y744117D1*
X1196287Y743885D1*
X1193228Y743839D1*
X1190171Y743979D1*
X1187129Y744304D1*
X1184112Y744816D1*
X1181133Y745510D1*
X1178199Y746386D1*
X1175327Y747437D1*
X1172522Y748661D1*
X1169798Y750055D1*
X1167164Y751613D1*
X1164630Y753328D1*
X1162205Y755194D1*
X1159899Y757205D1*
X1157719Y759352D1*
X1155675Y761629D1*
X1153772Y764025D1*
X1152020Y766533D1*
X1150423Y769143D1*
X1148988Y771846D1*
X1147722Y774631D1*
X1146627Y777490D1*
X1145709Y780408D1*
X1144970Y783377D1*
X1144413Y786386D1*
X1144041Y789423D1*
X1143856Y792478D1*
Y795537D1*
X1144042Y798591D1*
X1144416Y801629D1*
X1144972Y804636D1*
X1145713Y807606D1*
X1146631Y810525D1*
X1147727Y813382D1*
X1148995Y816167D1*
X1150430Y818869D1*
X1152028Y821479D1*
X1153781Y823987D1*
X1155684Y826383D1*
X1157728Y828659D1*
X1159909Y830806D1*
X1162217Y832815D1*
X1164642Y834681D1*
X1167176Y836395D1*
X1169811Y837951D1*
X1172535Y839344D1*
X1175340Y840568D1*
X1178214Y841619D1*
X1181146Y842493D1*
X1184126Y843186D1*
X1187143Y843697D1*
X1190185Y844022D1*
X1193241Y844163D1*
X1196302Y844115D1*
X1199353Y843882D1*
X1202383Y843462D1*
X1205383Y842860D1*
X1208341Y842075D1*
X1211245Y841110D1*
X1214085Y839972D1*
X1216850Y838661D1*
X1219530Y837186D1*
X1222115Y835549D1*
X1224597Y833757D1*
X1226963Y831819D1*
X1229207Y829739D1*
X1231322Y827526D1*
X1233295Y825188D1*
X1235123Y822735D1*
X1236799Y820175D1*
X1238315Y817516D1*
X1239667Y814770D1*
X1240848Y811948D1*
X1241854Y809059D1*
X1242291Y807592D1*
X1242684Y806112D1*
X1243031Y804621D1*
X1243332Y803119D1*
X1243588Y801610D1*
X1243797Y800093D1*
X1243997Y798068D1*
X1244117Y799332D1*
X1244345Y801155D1*
X1244640Y802969D1*
X1245001Y804770D1*
X1245429Y806556D1*
X1245921Y808327D1*
X1246478Y810077D1*
X1247098Y811807D1*
X1251169Y820122D1*
X1256698Y827547D1*
X1263497Y833829D1*
X1271336Y838756D1*
X1279945Y842159D1*
X1289034Y843921D1*
X1298291Y843984D1*
X1307403Y842344D1*
X1316058Y839058D1*
X1323962Y834238D1*
X1330845Y828047D1*
X1336474Y820697D1*
X1340656Y812438D1*
X1343251Y803551D1*
X1343567Y801741D1*
X1343818Y799921D1*
X1344000Y798098D1*
X1344207Y800126D1*
X1344417Y801642D1*
X1344675Y803152D1*
X1344976Y804652D1*
X1345324Y806143D1*
X1345718Y807623D1*
X1346155Y809091D1*
X1346638Y810543D1*
X1347165Y811980D1*
X1348348Y814802D1*
X1349701Y817547D1*
X1351219Y820203D1*
X1352896Y822762D1*
X1354726Y825215D1*
X1356702Y827551D1*
X1358818Y829762D1*
X1361063Y831841D1*
X1363432Y833780D1*
X1365913Y835568D1*
X1368500Y837203D1*
X1371181Y838677D1*
X1373948Y839986D1*
X1376787Y841123D1*
X1379693Y842084D1*
X1382651Y842867D1*
X1385651Y843469D1*
X1388682Y843886D1*
X1391734Y844117D1*
X1394793Y844161D1*
X1397849Y844020D1*
X1400891Y843693D1*
X1403908Y843180D1*
X1406888Y842484D1*
X1409820Y841609D1*
X1412693Y840555D1*
X1415496Y839329D1*
X1418219Y837934D1*
X1420853Y836377D1*
X1423386Y834660D1*
X1425811Y832793D1*
X1428117Y830782D1*
X1430295Y828634D1*
X1432339Y826356D1*
X1434240Y823959D1*
X1435992Y821450D1*
X1437588Y818839D1*
X1439021Y816135D1*
X1440286Y813349D1*
X1441379Y810492D1*
X1441861Y809038D1*
X1442298Y807571D1*
X1442689Y806091D1*
X1443035Y804600D1*
X1443336Y803098D1*
X1443591Y801588D1*
X1443799Y800072D1*
X1443941Y798741D1*
X1444222Y801113D1*
X1444516Y802927D1*
X1444874Y804728D1*
X1445299Y806516D1*
X1445789Y808286D1*
X1446343Y810038D1*
X1446961Y811769D1*
X1451026Y820109D1*
X1456556Y827562D1*
X1463360Y833870D1*
X1471209Y838822D1*
X1479832Y842247D1*
X1488938Y844028D1*
X1498218Y844106D1*
X1507353Y842478D1*
X1516033Y839199D1*
X1523963Y834381D1*
X1530873Y828188D1*
X1536528Y820831D1*
X1540734Y812559D1*
X1543348Y803656D1*
X1543668Y801846D1*
X1543921Y800028D1*
X1544055Y798719D1*
X1544345Y801155D1*
X1544640Y802969D1*
X1545001Y804770D1*
X1545429Y806556D1*
X1545921Y808327D1*
X1546478Y810077D1*
X1547098Y811807D1*
X1551169Y820122D1*
X1556698Y827547D1*
X1563497Y833829D1*
X1571336Y838756D1*
X1579945Y842159D1*
X1589034Y843921D1*
X1598291Y843984D1*
X1607403Y842344D1*
X1616058Y839058D1*
X1623962Y834238D1*
X1630845Y828047D1*
X1636474Y820697D1*
X1640656Y812438D1*
X1641301Y810718D1*
X1641881Y808974D1*
X1642500Y806806D1*
Y2842495D1*
X1370290Y2842500D1*
X445492D1*
X445500Y2753962D1*
Y445505D1*
X745269Y445500D1*
X1181163D1*
X1343909Y491190D2*
X1343329Y484865D1*
X1340811Y475957D1*
X1336698Y467661D1*
X1331131Y460265D1*
X1324301Y454016D1*
X1316437Y449130D1*
X1314780Y448337D1*
X1313093Y447608D1*
X1311382Y446940D1*
X1309647Y446335D1*
X1307892Y445794D1*
X1306798Y445500D1*
X1381112Y445516D1*
X1379638Y445932D1*
X1378177Y446392D1*
X1376732Y446898D1*
X1375303Y447446D1*
X1373891Y448038D1*
X1372499Y448673D1*
X1371125Y449350D1*
X1369773Y450070D1*
X1368444Y450829D1*
X1365860Y452467D1*
X1363381Y454260D1*
X1361014Y456201D1*
X1358772Y458282D1*
X1356659Y460496D1*
X1354686Y462835D1*
X1352860Y465290D1*
X1351186Y467852D1*
X1349672Y470510D1*
X1348322Y473256D1*
X1347142Y476080D1*
X1346136Y478970D1*
X1345701Y480437D1*
X1345308Y481917D1*
X1344963Y483408D1*
X1344663Y484909D1*
X1344408Y486420D1*
X1344199Y487936D1*
X1344003Y489932D1*
X1343909Y491190D1*
X1443930Y489371D2*
X1443795Y487892D1*
X1443329Y484869D1*
X1443028Y483367D1*
X1442681Y481877D1*
X1442289Y480396D1*
X1441850Y478929D1*
X1441369Y477476D1*
X1440843Y476038D1*
X1439660Y473217D1*
X1438308Y470471D1*
X1436791Y467814D1*
X1435115Y465253D1*
X1433286Y462801D1*
X1431311Y460463D1*
X1429197Y458252D1*
X1426953Y456172D1*
X1424585Y454234D1*
X1422104Y452444D1*
X1419518Y450807D1*
X1416837Y449332D1*
X1415463Y448656D1*
X1414071Y448022D1*
X1412657Y447430D1*
X1411228Y446883D1*
X1409782Y446379D1*
X1408322Y445920D1*
X1406827Y445500D1*
X1480724D1*
X1478987Y446010D1*
X1477244Y446591D1*
X1475522Y447235D1*
X1473827Y447941D1*
X1472157Y448709D1*
X1470518Y449537D1*
X1468909Y450424D1*
X1467335Y451370D1*
X1459955Y456995D1*
X1453735Y463881D1*
X1448886Y471793D1*
X1445573Y480461D1*
X1445112Y482239D1*
X1444714Y484033D1*
X1444383Y485839D1*
X1444118Y487657D1*
X1443944Y489264D1*
X1543957Y490441D2*
X1543446Y484865D1*
X1540927Y475934D1*
X1536807Y467619D1*
X1531231Y460202D1*
X1524387Y453937D1*
X1516508Y449035D1*
X1514850Y448243D1*
X1513165Y447512D1*
X1511454Y446843D1*
X1509719Y446238D1*
X1507965Y445694D1*
X1507241Y445500D1*
X1581164D1*
X1578916Y446154D1*
X1577175Y446738D1*
X1575455Y447386D1*
X1573761Y448096D1*
X1572094Y448867D1*
X1570457Y449699D1*
X1568850Y450592D1*
X1561302Y455951D1*
X1554867Y462608D1*
X1549765Y470333D1*
X1546169Y478865D1*
X1545648Y480626D1*
X1545190Y482406D1*
X1544799Y484199D1*
X1544472Y486008D1*
X1544214Y487827D1*
X1543957Y490441D1*
X1642500Y481933D2*
X1640811Y475957D1*
X1636698Y467661D1*
X1631131Y460265D1*
X1624301Y454016D1*
X1616437Y449130D1*
X1614780Y448337D1*
X1613093Y447608D1*
X1611382Y446940D1*
X1609647Y446335D1*
X1607892Y445794D1*
X1606798Y445500D1*
X1642508D1*
X1642500Y481933D1*
X722063Y1809840D2*
X719971Y1800894D1*
X716538Y1792371D1*
X711844Y1784474D1*
X706000Y1777385D1*
X699142Y1771270D1*
X691432Y1766276D1*
X683049Y1762516D1*
X674189Y1760080D1*
X665063Y1759024D1*
X655882Y1759374D1*
X646862Y1761122D1*
X638215Y1764227D1*
X630143Y1768614D1*
X622836Y1774182D1*
X616463Y1780802D1*
X611176Y1788315D1*
X607098Y1796549D1*
X604324Y1805307D1*
X602921Y1814386D1*
X602919Y1823573D1*
X604320Y1832654D1*
X607091Y1841413D1*
X611165Y1849648D1*
X616450Y1857164D1*
X622820Y1863785D1*
X630126Y1869356D1*
X638197Y1873745D1*
X646843Y1876853D1*
X655862Y1878604D1*
X665042Y1878957D1*
X674169Y1877906D1*
X683029Y1875472D1*
X691413Y1871715D1*
X699126Y1866722D1*
X705986Y1860610D1*
X711832Y1853524D1*
X716529Y1845627D1*
X719965Y1837106D1*
X722060Y1828161D1*
X722765Y1818991D1*
X722063Y1809840D1*
X722696Y1440929D2*
X722462Y1437873D1*
X722071Y1434833D1*
X721526Y1431816D1*
X720828Y1428832D1*
X719979Y1425887D1*
X718979Y1422990D1*
X717833Y1420146D1*
X716545Y1417365D1*
X715115Y1414654D1*
X713549Y1412020D1*
X711850Y1409469D1*
X710024Y1407007D1*
X708073Y1404642D1*
X706005Y1402379D1*
X703824Y1400226D1*
X701535Y1398186D1*
X699147Y1396266D1*
X696663Y1394471D1*
X694089Y1392804D1*
X691434Y1391272D1*
X688706Y1389877D1*
X685909Y1388623D1*
X683051Y1387513D1*
X680142Y1386551D1*
X677186Y1385739D1*
X674193Y1385079D1*
X671169Y1384571D1*
X668125Y1384219D1*
X665066Y1384024D1*
X662001Y1383984D1*
X658938Y1384102D1*
X655885Y1384375D1*
X652850Y1384804D1*
X649841Y1385388D1*
X646865Y1386125D1*
X643932Y1387012D1*
X641047Y1388047D1*
X638219Y1389230D1*
X635454Y1390554D1*
X632761Y1392018D1*
X630147Y1393618D1*
X627618Y1395349D1*
X625180Y1397207D1*
X622840Y1399188D1*
X620604Y1401283D1*
X618479Y1403492D1*
X616469Y1405807D1*
X614579Y1408220D1*
X612816Y1410727D1*
X611182Y1413322D1*
X609684Y1415995D1*
X608324Y1418741D1*
X607105Y1421554D1*
X606033Y1424425D1*
X605108Y1427348D1*
X604333Y1430314D1*
X603711Y1433315D1*
X603243Y1436344D1*
X602930Y1439394D1*
X602773Y1442454D1*
Y1445520D1*
X602929Y1448580D1*
X603241Y1451630D1*
X603710Y1454659D1*
X604331Y1457660D1*
X605105Y1460626D1*
X606030Y1463549D1*
X607102Y1466420D1*
X608320Y1469232D1*
X609681Y1471980D1*
X611178Y1474654D1*
X612812Y1477248D1*
X614575Y1479755D1*
X616465Y1482169D1*
X618474Y1484483D1*
X620600Y1486692D1*
X622835Y1488789D1*
X625175Y1490769D1*
X627612Y1492627D1*
X630142Y1494360D1*
X632756Y1495959D1*
X635449Y1497424D1*
X638213Y1498748D1*
X641041Y1499930D1*
X643925Y1500967D1*
X646860Y1501854D1*
X649835Y1502592D1*
X652844Y1503175D1*
X655878Y1503605D1*
X658932Y1503878D1*
X661995Y1503996D1*
X665059Y1503957D1*
X668118Y1503761D1*
X671163Y1503409D1*
X674186Y1502904D1*
X677180Y1502244D1*
X680135Y1501432D1*
X683045Y1500470D1*
X685903Y1499361D1*
X688699Y1498106D1*
X691429Y1496711D1*
X694084Y1495180D1*
X696656Y1493513D1*
X699140Y1491718D1*
X701530Y1489798D1*
X703819Y1487760D1*
X706000Y1485606D1*
X708068Y1483344D1*
X710020Y1480979D1*
X711846Y1478518D1*
X713545Y1475967D1*
X715112Y1473332D1*
X716542Y1470621D1*
X717831Y1467840D1*
X718978Y1464997D1*
X719976Y1462100D1*
X720827Y1459155D1*
X721525Y1456171D1*
X722071Y1453154D1*
X722461Y1450114D1*
X722696Y1447058D1*
X722774Y1443991D1*
X722696Y1440929D1*
X722083Y1059840D2*
X719991Y1050894D1*
X716558Y1042371D1*
X711864Y1034474D1*
X706020Y1027385D1*
X699161Y1021270D1*
X691450Y1016276D1*
X683068Y1012516D1*
X674209Y1010080D1*
X665083Y1009024D1*
X655902Y1009374D1*
X646882Y1011122D1*
X638235Y1014227D1*
X630163Y1018614D1*
X622854Y1024182D1*
X616483Y1030802D1*
X611196Y1038315D1*
X607118Y1046549D1*
X604344Y1055307D1*
X602940Y1064386D1*
X602938Y1073573D1*
X604340Y1082654D1*
X607110Y1091413D1*
X611185Y1099648D1*
X616470Y1107164D1*
X622840Y1113785D1*
X630146Y1119356D1*
X638215Y1123745D1*
X646862Y1126853D1*
X655881Y1128604D1*
X665062Y1128957D1*
X674189Y1127906D1*
X683049Y1125472D1*
X691433Y1121715D1*
X699146Y1116722D1*
X706005Y1110610D1*
X711852Y1103524D1*
X716549Y1095627D1*
X719984Y1087106D1*
X722079Y1078161D1*
X722783Y1068991D1*
X722083Y1059840D1*
X1472180Y1809858D2*
X1470087Y1800895D1*
X1466650Y1792356D1*
X1461949Y1784441D1*
X1456096Y1777336D1*
X1449226Y1771209D1*
X1441503Y1766202D1*
X1433104Y1762432D1*
X1424228Y1759988D1*
X1415085Y1758929D1*
X1405886Y1759277D1*
X1396849Y1761025D1*
X1388184Y1764133D1*
X1380094Y1768526D1*
X1372772Y1774104D1*
X1366386Y1780734D1*
X1361087Y1788260D1*
X1356997Y1796508D1*
X1354217Y1805282D1*
X1352807Y1814379D1*
X1352803Y1823584D1*
X1354203Y1832682D1*
X1356976Y1841459D1*
X1361058Y1849711D1*
X1366350Y1857243D1*
X1372730Y1863878D1*
X1380049Y1869462D1*
X1388133Y1873864D1*
X1396795Y1876979D1*
X1405831Y1878735D1*
X1415029Y1879092D1*
X1424175Y1878041D1*
X1433051Y1875606D1*
X1441453Y1871844D1*
X1449182Y1866844D1*
X1456056Y1860723D1*
X1461917Y1853623D1*
X1466625Y1845714D1*
X1470070Y1837177D1*
X1472171Y1828215D1*
X1472881Y1819009D1*
X1472180Y1809858D1*
X1472083Y1059860D2*
X1469991Y1050913D1*
X1466558Y1042391D1*
X1461864Y1034492D1*
X1456020Y1027404D1*
X1449161Y1021290D1*
X1441450Y1016294D1*
X1433067Y1012534D1*
X1424209Y1010098D1*
X1415083Y1009043D1*
X1405902Y1009394D1*
X1396882Y1011142D1*
X1388235Y1014245D1*
X1380163Y1018634D1*
X1372854Y1024202D1*
X1366483Y1030820D1*
X1361196Y1038335D1*
X1357118Y1046567D1*
X1354344Y1055325D1*
X1352940Y1064406D1*
X1352938Y1073593D1*
X1354340Y1082673D1*
X1357110Y1091433D1*
X1361185Y1099667D1*
X1366470Y1107182D1*
X1372840Y1113803D1*
X1380146Y1119375D1*
X1388215Y1123765D1*
X1396862Y1126873D1*
X1405881Y1128623D1*
X1415062Y1128976D1*
X1424189Y1127924D1*
X1433049Y1125491D1*
X1441433Y1121735D1*
X1449146Y1116741D1*
X1456005Y1110630D1*
X1461852Y1103543D1*
X1466549Y1095647D1*
X1469984Y1087126D1*
X1472079Y1078180D1*
X1472783Y1069009D1*
X1472083Y1059860D1*
X1131388Y2342866D2*
X1156630Y2342867D1*
X1160853Y2343304D1*
X1166524Y2345394D1*
X1171236Y2348924D1*
X1189052Y2366741D1*
X1191672Y2369933D1*
X1194245Y2375395D1*
X1195127Y2381367D1*
Y2406625D1*
X1194690Y2410848D1*
X1192600Y2416517D1*
X1189070Y2421231D1*
X1171222Y2439076D1*
X1167927Y2441755D1*
X1162440Y2444286D1*
X1156612Y2445122D1*
X1131370Y2445121D1*
X1127147Y2444684D1*
X1121476Y2442594D1*
X1116764Y2439064D1*
X1098917Y2421217D1*
X1096240Y2417921D1*
X1093709Y2412434D1*
X1092873Y2406605D1*
Y2381364D1*
X1093310Y2377140D1*
X1095400Y2371471D1*
X1098930Y2366757D1*
X1116778Y2348912D1*
X1120073Y2346234D1*
X1125560Y2343702D1*
X1131388Y2342866D1*
X1531388Y2342878D2*
X1556630Y2342879D1*
X1560853Y2343316D1*
X1566524Y2345406D1*
X1571236Y2348936D1*
X1589052Y2366753D1*
X1591672Y2369945D1*
X1594245Y2375407D1*
X1595127Y2381379D1*
Y2406636D1*
X1594690Y2410860D1*
X1592600Y2416530D1*
X1589070Y2421243D1*
X1571222Y2439088D1*
X1567927Y2441766D1*
X1562440Y2444298D1*
X1556612Y2445134D1*
X1531370Y2445133D1*
X1527147Y2444696D1*
X1521476Y2442606D1*
X1516764Y2439076D1*
X1498917Y2421228D1*
X1496240Y2417933D1*
X1493709Y2412446D1*
X1492873Y2406617D1*
Y2381375D1*
X1493310Y2377152D1*
X1495400Y2371482D1*
X1498930Y2366769D1*
X1516778Y2348923D1*
X1520073Y2346245D1*
X1525560Y2343714D1*
X1531388Y2342878D1*
X943261Y2121265D2*
X1034411D1*
Y2076885D1*
X1034576Y2078168D1*
X1034869Y2079982D1*
X1035227Y2081783D1*
X1035651Y2083571D1*
X1036140Y2085343D1*
X1036694Y2087094D1*
X1037312Y2088824D1*
X1037992Y2090530D1*
X1038735Y2092211D1*
X1039538Y2093864D1*
X1044483Y2101690D1*
X1050782Y2108475D1*
X1058219Y2113987D1*
X1066543Y2118039D1*
X1075471Y2120492D1*
X1084697Y2121262D1*
X1093907Y2120325D1*
X1102787Y2117711D1*
X1111038Y2113510D1*
X1118374Y2107865D1*
X1124550Y2100967D1*
X1129352Y2093052D1*
X1132618Y2084390D1*
X1133072Y2082609D1*
X1133461Y2080814D1*
X1133783Y2079005D1*
X1134041Y2077186D1*
X1134241Y2075178D1*
X1134360Y2076429D1*
X1134588Y2078252D1*
X1134883Y2080066D1*
X1135245Y2081866D1*
X1135672Y2083654D1*
X1136164Y2085424D1*
X1136722Y2087175D1*
X1137343Y2088903D1*
X1141412Y2097218D1*
X1146941Y2104644D1*
X1153741Y2110927D1*
X1161579Y2115853D1*
X1170189Y2119256D1*
X1179277Y2121018D1*
X1188535Y2121081D1*
X1197647Y2119441D1*
X1206302Y2116155D1*
X1214205Y2111335D1*
X1221089Y2105144D1*
X1226718Y2097794D1*
X1230900Y2089535D1*
X1233493Y2080648D1*
X1234409Y2071436D1*
X1234411Y2071097D1*
X1233572Y2061962D1*
X1231054Y2053052D1*
X1226941Y2044759D1*
X1221375Y2037362D1*
X1214543Y2031113D1*
X1206681Y2026226D1*
X1198054Y2022867D1*
X1188957Y2021151D1*
X1179698Y2021135D1*
X1170596Y2022822D1*
X1161958Y2026151D1*
X1154077Y2031010D1*
X1147226Y2037236D1*
X1141634Y2044615D1*
X1137493Y2052895D1*
X1134945Y2061795D1*
X1134638Y2063606D1*
X1134396Y2065428D1*
X1134245Y2067020D1*
X1133572Y2061962D1*
X1131054Y2053052D1*
X1126941Y2044759D1*
X1121375Y2037362D1*
X1114543Y2031113D1*
X1106681Y2026226D1*
X1098054Y2022867D1*
X1088957Y2021151D1*
X1079698Y2021135D1*
X1070596Y2022822D1*
X1061958Y2026151D1*
X1054077Y2031010D1*
X1047226Y2037236D1*
X1041634Y2044615D1*
X1037493Y2052895D1*
X1036858Y2054619D1*
X1036287Y2056365D1*
X1035780Y2058131D1*
X1035337Y2059913D1*
X1034961Y2061713D1*
X1034651Y2063522D1*
X1034411Y2065306D1*
Y2020929D1*
X934075D1*
Y2121265D1*
X943261D1*
X639703Y2367420D2*
X641600Y2369824D1*
X643117Y2372480D1*
X644226Y2375332D1*
X644902Y2378316D1*
X645127Y2381367D1*
X645119Y2407164D1*
X644814Y2410207D1*
X644060Y2413172D1*
X642878Y2415993D1*
X641290Y2418609D1*
X639332Y2420963D1*
X620836Y2439453D1*
X618467Y2441388D1*
X615837Y2442953D1*
X613007Y2444112D1*
X610034Y2444839D1*
X606986Y2445118D1*
X580831Y2445114D1*
X577787Y2444807D1*
X574822Y2444055D1*
X572000Y2442871D1*
X569385Y2441285D1*
X567030Y2439325D1*
X548541Y2420831D1*
X546605Y2418461D1*
X545041Y2415832D1*
X543883Y2413000D1*
X543155Y2410029D1*
X542875Y2406979D1*
X542881Y2380825D1*
X543186Y2377781D1*
X543940Y2374816D1*
X545122Y2371995D1*
X546710Y2369379D1*
X548668Y2367025D1*
X567164Y2348535D1*
X569533Y2346600D1*
X572163Y2345035D1*
X574993Y2343877D1*
X577966Y2343150D1*
X581014Y2342870D1*
X607169Y2342874D1*
X610213Y2343181D1*
X613178Y2343933D1*
X616000Y2345117D1*
X618615Y2346703D1*
X620970Y2348663D1*
X639050Y2366739D1*
X639703Y2367420D1*
X981388Y2342878D2*
X1006630Y2342879D1*
X1010853Y2343316D1*
X1016524Y2345406D1*
X1021236Y2348936D1*
X1039052Y2366753D1*
X1041672Y2369945D1*
X1044245Y2375407D1*
X1045127Y2381379D1*
Y2406636D1*
X1044690Y2410860D1*
X1042600Y2416530D1*
X1039070Y2421243D1*
X1021222Y2439088D1*
X1017927Y2441766D1*
X1012440Y2444298D1*
X1006612Y2445134D1*
X981370Y2445133D1*
X977147Y2444696D1*
X971476Y2442606D1*
X966764Y2439076D1*
X948917Y2421228D1*
X946240Y2417933D1*
X943709Y2412446D1*
X942873Y2406617D1*
Y2381375D1*
X943310Y2377152D1*
X945400Y2371482D1*
X948930Y2366769D1*
X966778Y2348923D1*
X970073Y2346245D1*
X975560Y2343714D1*
X981388Y2342878D1*
X631387Y592873D2*
X656629D1*
X660852Y593310D1*
X666522Y595399D1*
X671235Y598929D1*
X689051Y616745D1*
X691671Y619937D1*
X694244Y625399D1*
X695127Y631371D1*
Y656629D1*
X694690Y660852D1*
X692601Y666522D1*
X689071Y671235D1*
X671223Y689081D1*
X667928Y691760D1*
X662441Y694291D1*
X656613Y695127D1*
X631371D1*
X627148Y694690D1*
X621478Y692601D1*
X616765Y689071D1*
X598919Y671223D1*
X596240Y667928D1*
X593709Y662441D1*
X592873Y656613D1*
Y631371D1*
X593310Y627148D1*
X595399Y621478D1*
X598929Y616765D1*
X616777Y598919D1*
X620072Y596240D1*
X625559Y593709D1*
X631387Y592873D1*
X1031387D2*
X1056629D1*
X1060852Y593310D1*
X1066522Y595399D1*
X1071235Y598929D1*
X1089051Y616745D1*
X1091671Y619937D1*
X1094244Y625399D1*
X1095127Y631371D1*
Y656629D1*
X1094690Y660852D1*
X1092601Y666522D1*
X1089071Y671235D1*
X1071223Y689081D1*
X1067928Y691760D1*
X1062441Y694291D1*
X1056613Y695127D1*
X1031371D1*
X1027148Y694690D1*
X1021478Y692601D1*
X1016765Y689071D1*
X998919Y671223D1*
X996240Y667928D1*
X993709Y662441D1*
X992873Y656613D1*
Y631371D1*
X993310Y627148D1*
X995399Y621478D1*
X998929Y616765D1*
X1016777Y598919D1*
X1020072Y596240D1*
X1025559Y593709D1*
X1031387Y592873D1*
X744000Y894133D2*
D18*
Y793867D1*
X693867Y844000D2*
X794133D1*
X1143867Y494000D2*
X1244133D1*
X1194000D2*
Y544133D1*
X1343867Y494000D2*
X1444133D1*
X1394000D2*
Y544133D1*
X1343867Y794000D2*
X1444133D1*
X1394000Y743867D2*
Y844133D1*
X1143867Y794000D2*
X1244133D1*
X1194000Y743867D2*
Y844133D1*
X722739Y1443992D2*
X602789Y1443988D1*
X662762Y1503965D2*
X662765Y1384016D1*
X593999Y2445129D2*
X594001Y2342860D1*
X542865Y2393992D2*
X645135Y2393996D1*
D20*
X744000Y844000D3*
X944000D3*
X1194000Y494000D3*
X1294000D3*
X1394000D3*
X1494000D3*
X1594000D3*
Y794000D3*
X1494000D3*
X1394000D3*
X1294000D3*
X1194000D3*
D21*
X662754Y1818990D3*
X662764Y1443990D3*
X662774Y1068990D3*
X1412754Y1819010D3*
X1412774Y1069010D3*
D37*
X1144000Y2393994D3*
X1544000Y2394006D3*
D24*
X984243Y2071097D3*
D20*
X1084243D3*
X1184243D3*
D37*
X594000Y2393994D3*
X994000Y2394006D3*
X644000Y644000D3*
X1044000D3*
M02*
