M48
INCH
T01C0.0315
T02C0.0354
T03C0.0394
T04C0.1378
%
T01
X+007440Y+008440
X+009440Y+008440
X+010440Y+006440
X+006440Y+006440
X+005940Y+023940
X+009940Y+023940
X+011440Y+023940
X+015440Y+023940
T02
X+011940Y+004940
X+012940Y+004940
X+013940Y+004940
X+014940Y+004940
X+015940Y+004940
X+015940Y+007940
X+014940Y+007940
X+013940Y+007940
X+012940Y+007940
X+011940Y+007940
X+011842Y+020711
X+010842Y+020711
X+009842Y+020711
T03
X+006628Y+018190
X+006628Y+014440
X+006628Y+010690
X+014128Y+010690
X+014128Y+018190
T04
X+010440Y+026940
T00
M30
